<svg width="213" height="80" viewBox="0 0 213 80" fill="none" xmlns="http://www.w3.org/2000/svg">
<rect width="213" height="80" rx="8" fill="#222223"/>
<path d="M66.368 25.6H69.788C70.676 25.6 71.46 25.78 72.14 26.14C72.82 26.492 73.348 26.988 73.724 27.628C74.1 28.26 74.288 28.984 74.288 29.8C74.288 30.616 74.1 31.344 73.724 31.984C73.348 32.616 72.82 33.112 72.14 33.472C71.46 33.824 70.676 34 69.788 34H66.368V25.6ZM69.74 33.232C70.476 33.232 71.12 33.088 71.672 32.8C72.224 32.504 72.652 32.1 72.956 31.588C73.26 31.068 73.412 30.472 73.412 29.8C73.412 29.128 73.26 28.536 72.956 28.024C72.652 27.504 72.224 27.1 71.672 26.812C71.12 26.516 70.476 26.368 69.74 26.368H67.256V33.232H69.74ZM78.6821 34.06C78.0741 34.06 77.5261 33.924 77.0381 33.652C76.5501 33.372 76.1661 32.988 75.8861 32.5C75.6061 32.012 75.4661 31.46 75.4661 30.844C75.4661 30.228 75.6061 29.676 75.8861 29.188C76.1661 28.7 76.5501 28.32 77.0381 28.048C77.5261 27.776 78.0741 27.64 78.6821 27.64C79.2901 27.64 79.8381 27.776 80.3261 28.048C80.8141 28.32 81.1941 28.7 81.4661 29.188C81.7461 29.676 81.8861 30.228 81.8861 30.844C81.8861 31.46 81.7461 32.012 81.4661 32.5C81.1941 32.988 80.8141 33.372 80.3261 33.652C79.8381 33.924 79.2901 34.06 78.6821 34.06ZM78.6821 33.304C79.1301 33.304 79.5301 33.204 79.8821 33.004C80.2421 32.796 80.5221 32.504 80.7221 32.128C80.9221 31.752 81.0221 31.324 81.0221 30.844C81.0221 30.364 80.9221 29.936 80.7221 29.56C80.5221 29.184 80.2421 28.896 79.8821 28.696C79.5301 28.488 79.1301 28.384 78.6821 28.384C78.2341 28.384 77.8301 28.488 77.4701 28.696C77.1181 28.896 76.8381 29.184 76.6301 29.56C76.4301 29.936 76.3301 30.364 76.3301 30.844C76.3301 31.324 76.4301 31.752 76.6301 32.128C76.8381 32.504 77.1181 32.796 77.4701 33.004C77.8301 33.204 78.2341 33.304 78.6821 33.304ZM92.7137 27.688L90.3257 34H89.5217L87.5297 28.828L85.5377 34H84.7337L82.3577 27.688H83.1737L85.1537 33.052L87.1817 27.688H87.9137L89.9297 33.052L91.9337 27.688H92.7137ZM97.2126 27.64C98.0046 27.64 98.6326 27.872 99.0966 28.336C99.5686 28.792 99.8046 29.46 99.8046 30.34V34H98.9526V30.424C98.9526 29.768 98.7886 29.268 98.4606 28.924C98.1326 28.58 97.6646 28.408 97.0566 28.408C96.3766 28.408 95.8366 28.612 95.4366 29.02C95.0446 29.42 94.8486 29.976 94.8486 30.688V34H93.9966V27.688H94.8126V28.852C95.0446 28.468 95.3646 28.172 95.7726 27.964C96.1886 27.748 96.6686 27.64 97.2126 27.64ZM102.118 25.096H102.97V34H102.118V25.096ZM107.92 34.06C107.312 34.06 106.764 33.924 106.276 33.652C105.788 33.372 105.404 32.988 105.124 32.5C104.844 32.012 104.704 31.46 104.704 30.844C104.704 30.228 104.844 29.676 105.124 29.188C105.404 28.7 105.788 28.32 106.276 28.048C106.764 27.776 107.312 27.64 107.92 27.64C108.528 27.64 109.076 27.776 109.564 28.048C110.052 28.32 110.432 28.7 110.704 29.188C110.984 29.676 111.124 30.228 111.124 30.844C111.124 31.46 110.984 32.012 110.704 32.5C110.432 32.988 110.052 33.372 109.564 33.652C109.076 33.924 108.528 34.06 107.92 34.06ZM107.92 33.304C108.368 33.304 108.768 33.204 109.12 33.004C109.48 32.796 109.76 32.504 109.96 32.128C110.16 31.752 110.26 31.324 110.26 30.844C110.26 30.364 110.16 29.936 109.96 29.56C109.76 29.184 109.48 28.896 109.12 28.696C108.768 28.488 108.368 28.384 107.92 28.384C107.472 28.384 107.068 28.488 106.708 28.696C106.356 28.896 106.076 29.184 105.868 29.56C105.668 29.936 105.568 30.364 105.568 30.844C105.568 31.324 105.668 31.752 105.868 32.128C106.076 32.504 106.356 32.796 106.708 33.004C107.068 33.204 107.472 33.304 107.92 33.304ZM115.037 27.64C115.861 27.64 116.493 27.848 116.933 28.264C117.373 28.672 117.593 29.28 117.593 30.088V34H116.777V33.016C116.585 33.344 116.301 33.6 115.925 33.784C115.557 33.968 115.117 34.06 114.605 34.06C113.901 34.06 113.341 33.892 112.925 33.556C112.509 33.22 112.301 32.776 112.301 32.224C112.301 31.688 112.493 31.256 112.877 30.928C113.269 30.6 113.889 30.436 114.737 30.436H116.741V30.052C116.741 29.508 116.589 29.096 116.285 28.816C115.981 28.528 115.537 28.384 114.953 28.384C114.553 28.384 114.169 28.452 113.801 28.588C113.433 28.716 113.117 28.896 112.853 29.128L112.469 28.492C112.789 28.22 113.173 28.012 113.621 27.868C114.069 27.716 114.541 27.64 115.037 27.64ZM114.737 33.388C115.217 33.388 115.629 33.28 115.973 33.064C116.317 32.84 116.573 32.52 116.741 32.104V31.072H114.761C113.681 31.072 113.141 31.448 113.141 32.2C113.141 32.568 113.281 32.86 113.561 33.076C113.841 33.284 114.233 33.388 114.737 33.388ZM125.69 25.096V34H124.874V32.752C124.618 33.176 124.278 33.5 123.854 33.724C123.438 33.948 122.966 34.06 122.438 34.06C121.846 34.06 121.31 33.924 120.83 33.652C120.35 33.38 119.974 33 119.702 32.512C119.43 32.024 119.294 31.468 119.294 30.844C119.294 30.22 119.43 29.664 119.702 29.176C119.974 28.688 120.35 28.312 120.83 28.048C121.31 27.776 121.846 27.64 122.438 27.64C122.95 27.64 123.41 27.748 123.818 27.964C124.234 28.172 124.574 28.48 124.838 28.888V25.096H125.69ZM122.51 33.304C122.95 33.304 123.346 33.204 123.698 33.004C124.058 32.796 124.338 32.504 124.538 32.128C124.746 31.752 124.85 31.324 124.85 30.844C124.85 30.364 124.746 29.936 124.538 29.56C124.338 29.184 124.058 28.896 123.698 28.696C123.346 28.488 122.95 28.384 122.51 28.384C122.062 28.384 121.658 28.488 121.298 28.696C120.946 28.896 120.666 29.184 120.458 29.56C120.258 29.936 120.158 30.364 120.158 30.844C120.158 31.324 120.258 31.752 120.458 32.128C120.666 32.504 120.946 32.796 121.298 33.004C121.658 33.204 122.062 33.304 122.51 33.304ZM133.784 34.06C133.176 34.06 132.628 33.924 132.14 33.652C131.652 33.372 131.268 32.988 130.988 32.5C130.708 32.012 130.568 31.46 130.568 30.844C130.568 30.228 130.708 29.676 130.988 29.188C131.268 28.7 131.652 28.32 132.14 28.048C132.628 27.776 133.176 27.64 133.784 27.64C134.392 27.64 134.94 27.776 135.428 28.048C135.916 28.32 136.296 28.7 136.568 29.188C136.848 29.676 136.988 30.228 136.988 30.844C136.988 31.46 136.848 32.012 136.568 32.5C136.296 32.988 135.916 33.372 135.428 33.652C134.94 33.924 134.392 34.06 133.784 34.06ZM133.784 33.304C134.232 33.304 134.632 33.204 134.984 33.004C135.344 32.796 135.624 32.504 135.824 32.128C136.024 31.752 136.124 31.324 136.124 30.844C136.124 30.364 136.024 29.936 135.824 29.56C135.624 29.184 135.344 28.896 134.984 28.696C134.632 28.488 134.232 28.384 133.784 28.384C133.336 28.384 132.932 28.488 132.572 28.696C132.22 28.896 131.94 29.184 131.732 29.56C131.532 29.936 131.432 30.364 131.432 30.844C131.432 31.324 131.532 31.752 131.732 32.128C131.94 32.504 132.22 32.796 132.572 33.004C132.932 33.204 133.336 33.304 133.784 33.304ZM141.943 27.64C142.735 27.64 143.363 27.872 143.827 28.336C144.299 28.792 144.535 29.46 144.535 30.34V34H143.683V30.424C143.683 29.768 143.519 29.268 143.191 28.924C142.863 28.58 142.395 28.408 141.787 28.408C141.107 28.408 140.567 28.612 140.167 29.02C139.775 29.42 139.579 29.976 139.579 30.688V34H138.727V27.688H139.543V28.852C139.775 28.468 140.095 28.172 140.503 27.964C140.919 27.748 141.399 27.64 141.943 27.64ZM153.313 33.616C153.153 33.76 152.953 33.872 152.713 33.952C152.481 34.024 152.237 34.06 151.981 34.06C151.389 34.06 150.933 33.9 150.613 33.58C150.293 33.26 150.133 32.808 150.133 32.224V28.408H149.005V27.688H150.133V26.308H150.985V27.688H152.905V28.408H150.985V32.176C150.985 32.552 151.077 32.84 151.261 33.04C151.453 33.232 151.725 33.328 152.077 33.328C152.253 33.328 152.421 33.3 152.581 33.244C152.749 33.188 152.893 33.108 153.013 33.004L153.313 33.616ZM158.08 27.64C158.872 27.64 159.5 27.872 159.964 28.336C160.436 28.792 160.672 29.46 160.672 30.34V34H159.82V30.424C159.82 29.768 159.656 29.268 159.328 28.924C159 28.58 158.532 28.408 157.924 28.408C157.244 28.408 156.704 28.612 156.304 29.02C155.912 29.42 155.716 29.976 155.716 30.688V34H154.864V25.096H155.716V28.792C155.948 28.424 156.268 28.14 156.676 27.94C157.084 27.74 157.552 27.64 158.08 27.64ZM168.504 31.108H163.224C163.272 31.764 163.524 32.296 163.98 32.704C164.436 33.104 165.012 33.304 165.708 33.304C166.1 33.304 166.46 33.236 166.788 33.1C167.116 32.956 167.4 32.748 167.64 32.476L168.12 33.028C167.84 33.364 167.488 33.62 167.064 33.796C166.648 33.972 166.188 34.06 165.684 34.06C165.036 34.06 164.46 33.924 163.956 33.652C163.46 33.372 163.072 32.988 162.792 32.5C162.512 32.012 162.372 31.46 162.372 30.844C162.372 30.228 162.504 29.676 162.768 29.188C163.04 28.7 163.408 28.32 163.872 28.048C164.344 27.776 164.872 27.64 165.456 27.64C166.04 27.64 166.564 27.776 167.028 28.048C167.492 28.32 167.856 28.7 168.12 29.188C168.384 29.668 168.516 30.22 168.516 30.844L168.504 31.108ZM165.456 28.372C164.848 28.372 164.336 28.568 163.92 28.96C163.512 29.344 163.28 29.848 163.224 30.472H167.7C167.644 29.848 167.408 29.344 166.992 28.96C166.584 28.568 166.072 28.372 165.456 28.372ZM74.864 53.084H68.564L67.322 56H64.91L70.58 43.4H72.884L78.572 56H76.124L74.864 53.084ZM74.09 51.248L71.714 45.74L69.356 51.248H74.09ZM85.2864 46.28C86.2224 46.28 87.0564 46.484 87.7884 46.892C88.5324 47.3 89.1144 47.876 89.5344 48.62C89.9544 49.364 90.1644 50.222 90.1644 51.194C90.1644 52.166 89.9544 53.03 89.5344 53.786C89.1144 54.53 88.5324 55.106 87.7884 55.514C87.0564 55.922 86.2224 56.126 85.2864 56.126C83.9904 56.126 82.9644 55.694 82.2084 54.83V59.492H79.9584V46.388H82.1004V47.648C82.4724 47.192 82.9284 46.85 83.4684 46.622C84.0204 46.394 84.6264 46.28 85.2864 46.28ZM85.0344 54.2C85.8624 54.2 86.5404 53.924 87.0684 53.372C87.6084 52.82 87.8784 52.094 87.8784 51.194C87.8784 50.294 87.6084 49.568 87.0684 49.016C86.5404 48.464 85.8624 48.188 85.0344 48.188C84.4944 48.188 84.0084 48.314 83.5764 48.566C83.1444 48.806 82.8024 49.154 82.5504 49.61C82.2984 50.066 82.1724 50.594 82.1724 51.194C82.1724 51.794 82.2984 52.322 82.5504 52.778C82.8024 53.234 83.1444 53.588 83.5764 53.84C84.0084 54.08 84.4944 54.2 85.0344 54.2ZM97.6263 46.28C98.5623 46.28 99.3963 46.484 100.128 46.892C100.872 47.3 101.454 47.876 101.874 48.62C102.294 49.364 102.504 50.222 102.504 51.194C102.504 52.166 102.294 53.03 101.874 53.786C101.454 54.53 100.872 55.106 100.128 55.514C99.3963 55.922 98.5623 56.126 97.6263 56.126C96.3303 56.126 95.3043 55.694 94.5483 54.83V59.492H92.2983V46.388H94.4403V47.648C94.8123 47.192 95.2683 46.85 95.8083 46.622C96.3603 46.394 96.9663 46.28 97.6263 46.28ZM97.3743 54.2C98.2023 54.2 98.8803 53.924 99.4083 53.372C99.9483 52.82 100.218 52.094 100.218 51.194C100.218 50.294 99.9483 49.568 99.4083 49.016C98.8803 48.464 98.2023 48.188 97.3743 48.188C96.8343 48.188 96.3483 48.314 95.9163 48.566C95.4843 48.806 95.1423 49.154 94.8903 49.61C94.6383 50.066 94.5123 50.594 94.5123 51.194C94.5123 51.794 94.6383 52.322 94.8903 52.778C95.1423 53.234 95.4843 53.588 95.9163 53.84C96.3483 54.08 96.8343 54.2 97.3743 54.2ZM112.583 56.126C111.803 56.126 111.041 56.024 110.297 55.82C109.553 55.616 108.959 55.358 108.515 55.046L109.379 53.336C109.811 53.624 110.327 53.858 110.927 54.038C111.539 54.206 112.139 54.29 112.727 54.29C114.071 54.29 114.743 53.936 114.743 53.228C114.743 52.892 114.569 52.658 114.221 52.526C113.885 52.394 113.339 52.268 112.583 52.148C111.791 52.028 111.143 51.89 110.639 51.734C110.147 51.578 109.715 51.308 109.343 50.924C108.983 50.528 108.803 49.982 108.803 49.286C108.803 48.374 109.181 47.648 109.937 47.108C110.705 46.556 111.737 46.28 113.033 46.28C113.693 46.28 114.353 46.358 115.013 46.514C115.673 46.658 116.213 46.856 116.633 47.108L115.769 48.818C114.953 48.338 114.035 48.098 113.015 48.098C112.355 48.098 111.851 48.2 111.503 48.404C111.167 48.596 110.999 48.854 110.999 49.178C110.999 49.538 111.179 49.796 111.539 49.952C111.911 50.096 112.481 50.234 113.249 50.366C114.017 50.486 114.647 50.624 115.139 50.78C115.631 50.936 116.051 51.2 116.399 51.572C116.759 51.944 116.939 52.472 116.939 53.156C116.939 54.056 116.549 54.776 115.769 55.316C114.989 55.856 113.927 56.126 112.583 56.126ZM124.654 55.478C124.39 55.694 124.066 55.856 123.682 55.964C123.31 56.072 122.914 56.126 122.494 56.126C121.438 56.126 120.622 55.85 120.046 55.298C119.47 54.746 119.182 53.942 119.182 52.886V48.26H117.598V46.46H119.182V44.264H121.432V46.46H124.006V48.26H121.432V52.832C121.432 53.3 121.546 53.66 121.774 53.912C122.002 54.152 122.332 54.272 122.764 54.272C123.268 54.272 123.688 54.14 124.024 53.876L124.654 55.478ZM130.509 56.126C129.537 56.126 128.661 55.916 127.881 55.496C127.101 55.076 126.489 54.494 126.045 53.75C125.613 52.994 125.397 52.142 125.397 51.194C125.397 50.246 125.613 49.4 126.045 48.656C126.489 47.912 127.101 47.33 127.881 46.91C128.661 46.49 129.537 46.28 130.509 46.28C131.493 46.28 132.375 46.49 133.155 46.91C133.935 47.33 134.541 47.912 134.973 48.656C135.417 49.4 135.639 50.246 135.639 51.194C135.639 52.142 135.417 52.994 134.973 53.75C134.541 54.494 133.935 55.076 133.155 55.496C132.375 55.916 131.493 56.126 130.509 56.126ZM130.509 54.2C131.337 54.2 132.021 53.924 132.561 53.372C133.101 52.82 133.371 52.094 133.371 51.194C133.371 50.294 133.101 49.568 132.561 49.016C132.021 48.464 131.337 48.188 130.509 48.188C129.681 48.188 128.997 48.464 128.457 49.016C127.929 49.568 127.665 50.294 127.665 51.194C127.665 52.094 127.929 52.82 128.457 53.372C128.997 53.924 129.681 54.2 130.509 54.2ZM139.932 47.792C140.58 46.784 141.72 46.28 143.352 46.28V48.422C143.16 48.386 142.986 48.368 142.83 48.368C141.954 48.368 141.27 48.626 140.778 49.142C140.286 49.646 140.04 50.378 140.04 51.338V56H137.79V46.388H139.932V47.792ZM154.209 51.248C154.209 51.404 154.197 51.626 154.173 51.914H146.631C146.763 52.622 147.105 53.186 147.657 53.606C148.221 54.014 148.917 54.218 149.745 54.218C150.801 54.218 151.671 53.87 152.355 53.174L153.561 54.56C153.129 55.076 152.583 55.466 151.923 55.73C151.263 55.994 150.519 56.126 149.691 56.126C148.635 56.126 147.705 55.916 146.901 55.496C146.097 55.076 145.473 54.494 145.029 53.75C144.597 52.994 144.381 52.142 144.381 51.194C144.381 50.258 144.591 49.418 145.011 48.674C145.443 47.918 146.037 47.33 146.793 46.91C147.549 46.49 148.401 46.28 149.349 46.28C150.285 46.28 151.119 46.49 151.851 46.91C152.595 47.318 153.171 47.9 153.579 48.656C153.999 49.4 154.209 50.264 154.209 51.248ZM149.349 48.08C148.629 48.08 148.017 48.296 147.513 48.728C147.021 49.148 146.721 49.712 146.613 50.42H152.067C151.971 49.724 151.677 49.16 151.185 48.728C150.693 48.296 150.081 48.08 149.349 48.08Z" fill="white"/>
<path d="M43.9017 43.8423C43.8039 43.6891 43.6448 43.5868 43.4663 43.5623C41.1177 43.2514 39.4624 41.0699 39.7692 38.6898C39.9859 37.0086 41.1475 35.6085 42.7448 35.1036C43.0691 34.9983 43.2478 34.6464 43.1439 34.3177C43.1277 34.2666 43.1051 34.2177 43.0766 34.1724C41.9988 32.2012 40.0824 30.8455 37.885 30.4999C36.7777 30.5535 35.6864 30.7904 34.6546 31.2012C33.9135 31.5034 33.131 31.6885 32.3345 31.7499C31.5379 31.6885 30.7554 31.5034 30.0144 31.2012C28.9825 30.7904 27.8913 30.5535 26.784 30.4999C24.4811 30.4999 20 33.8086 20 39.8748C20 45.6397 24.1493 52.9997 27.4007 52.9997C28.6413 53.0109 29.867 52.7248 30.9777 52.1647C31.396 51.9309 31.8584 51.7894 32.3345 51.7497C32.8106 51.7894 33.273 51.9309 33.6913 52.1647C34.8021 52.7248 36.0278 53.0109 37.2684 52.9997C39.8463 52.9997 42.756 48.5147 43.9746 44.3585C44.0256 44.184 43.999 43.9954 43.9017 43.8423Z" fill="white"/>
<path d="M43.9017 43.8423C43.8039 43.6891 43.6448 43.5868 43.4663 43.5623C41.1177 43.2514 39.4624 41.0699 39.7692 38.6898C39.9859 37.0086 41.1475 35.6085 42.7448 35.1036C43.0691 34.9983 43.2478 34.6464 43.1439 34.3177C43.1277 34.2666 43.1051 34.2177 43.0766 34.1724C41.9988 32.2012 40.0824 30.8455 37.885 30.4999C36.7777 30.5535 35.6864 30.7904 34.6546 31.2012C33.9135 31.5034 33.131 31.6885 32.3345 31.7499C31.5379 31.6885 30.7554 31.5034 30.0144 31.2012C28.9825 30.7904 27.8913 30.5535 26.784 30.4999C24.4811 30.4999 20 33.8086 20 39.8748C20 45.6397 24.1493 52.9997 27.4007 52.9997C28.6413 53.0109 29.867 52.7248 30.9777 52.1647C31.396 51.9309 31.8584 51.7894 32.3345 51.7497C32.8106 51.7894 33.273 51.9309 33.6913 52.1647C34.8021 52.7248 36.0278 53.0109 37.2684 52.9997C39.8463 52.9997 42.756 48.5147 43.9746 44.3585C44.0256 44.184 43.999 43.9954 43.9017 43.8423Z" fill="url(#paint0_linear)"/>
<path d="M31.7177 30.4999C35.4627 30.4958 38.4976 27.4202 38.5017 23.625C38.5017 23.2798 38.2256 23 37.885 23C34.14 23.0042 31.1051 26.0797 31.101 29.8749C31.101 30.2201 31.3771 30.4999 31.7177 30.4999Z" fill="white"/>
<path d="M31.7177 30.4999C35.4627 30.4958 38.4976 27.4202 38.5017 23.625C38.5017 23.2798 38.2256 23 37.885 23C34.14 23.0042 31.1051 26.0797 31.101 29.8749C31.101 30.2201 31.3771 30.4999 31.7177 30.4999Z" fill="url(#paint1_linear)"/>
<defs>
<linearGradient id="paint0_linear" x1="32" y1="30.4999" x2="32" y2="53" gradientUnits="userSpaceOnUse">
<stop stop-color="#C8A86B"/>
<stop offset="1" stop-color="#725E3A"/>
</linearGradient>
<linearGradient id="paint1_linear" x1="34.8014" y1="23" x2="34.8014" y2="30.4999" gradientUnits="userSpaceOnUse">
<stop stop-color="#C8A86B"/>
<stop offset="1" stop-color="#725E3A"/>
</linearGradient>
</defs>
</svg>
