<svg width="213" height="80" viewBox="0 0 213 80" fill="none" xmlns="http://www.w3.org/2000/svg">
<rect width="213" height="80" rx="8" fill="#222223"/>
<path d="M71.284 28.8H72.136V32.004C71.744 32.348 71.28 32.612 70.744 32.796C70.208 32.98 69.644 33.072 69.052 33.072C68.212 33.072 67.456 32.888 66.784 32.52C66.112 32.152 65.584 31.644 65.2 30.996C64.816 30.34 64.624 29.608 64.624 28.8C64.624 27.992 64.816 27.264 65.2 26.616C65.584 25.96 66.112 25.448 66.784 25.08C67.456 24.712 68.216 24.528 69.064 24.528C69.704 24.528 70.292 24.632 70.828 24.84C71.364 25.04 71.816 25.34 72.184 25.74L71.632 26.304C70.968 25.648 70.124 25.32 69.1 25.32C68.42 25.32 67.804 25.472 67.252 25.776C66.708 26.072 66.28 26.488 65.968 27.024C65.656 27.552 65.5 28.144 65.5 28.8C65.5 29.456 65.656 30.048 65.968 30.576C66.28 31.104 66.708 31.52 67.252 31.824C67.796 32.128 68.408 32.28 69.088 32.28C69.952 32.28 70.684 32.064 71.284 31.632V28.8ZM79.9653 30.108H74.6853C74.7333 30.764 74.9853 31.296 75.4413 31.704C75.8973 32.104 76.4733 32.304 77.1693 32.304C77.5613 32.304 77.9213 32.236 78.2493 32.1C78.5773 31.956 78.8613 31.748 79.1013 31.476L79.5813 32.028C79.3013 32.364 78.9493 32.62 78.5253 32.796C78.1093 32.972 77.6493 33.06 77.1453 33.06C76.4973 33.06 75.9213 32.924 75.4173 32.652C74.9213 32.372 74.5333 31.988 74.2533 31.5C73.9733 31.012 73.8333 30.46 73.8333 29.844C73.8333 29.228 73.9653 28.676 74.2293 28.188C74.5013 27.7 74.8693 27.32 75.3333 27.048C75.8053 26.776 76.3333 26.64 76.9173 26.64C77.5013 26.64 78.0253 26.776 78.4893 27.048C78.9533 27.32 79.3173 27.7 79.5813 28.188C79.8453 28.668 79.9773 29.22 79.9773 29.844L79.9653 30.108ZM76.9173 27.372C76.3093 27.372 75.7973 27.568 75.3813 27.96C74.9733 28.344 74.7413 28.848 74.6853 29.472H79.1613C79.1053 28.848 78.8693 28.344 78.4533 27.96C78.0453 27.568 77.5333 27.372 76.9173 27.372ZM81.7114 26.688H82.5634V33H81.7114V26.688ZM82.1434 25.308C81.9674 25.308 81.8194 25.248 81.6994 25.128C81.5794 25.008 81.5194 24.864 81.5194 24.696C81.5194 24.536 81.5794 24.396 81.6994 24.276C81.8194 24.156 81.9674 24.096 82.1434 24.096C82.3194 24.096 82.4674 24.156 82.5874 24.276C82.7074 24.388 82.7674 24.524 82.7674 24.684C82.7674 24.86 82.7074 25.008 82.5874 25.128C82.4674 25.248 82.3194 25.308 82.1434 25.308ZM88.0747 26.688H88.9267V33H88.0747V26.688ZM88.5067 25.308C88.3307 25.308 88.1827 25.248 88.0627 25.128C87.9427 25.008 87.8827 24.864 87.8827 24.696C87.8827 24.536 87.9427 24.396 88.0627 24.276C88.1827 24.156 88.3307 24.096 88.5067 24.096C88.6827 24.096 88.8307 24.156 88.9507 24.276C89.0707 24.388 89.1307 24.524 89.1307 24.684C89.1307 24.86 89.0707 25.008 88.9507 25.128C88.8307 25.248 88.6827 25.308 88.5067 25.308ZM94.6214 32.616C94.4614 32.76 94.2614 32.872 94.0214 32.952C93.7894 33.024 93.5454 33.06 93.2894 33.06C92.6974 33.06 92.2414 32.9 91.9214 32.58C91.6014 32.26 91.4414 31.808 91.4414 31.224V27.408H90.3134V26.688H91.4414V25.308H92.2934V26.688H94.2134V27.408H92.2934V31.176C92.2934 31.552 92.3854 31.84 92.5694 32.04C92.7614 32.232 93.0334 32.328 93.3854 32.328C93.5614 32.328 93.7294 32.3 93.8894 32.244C94.0574 32.188 94.2014 32.108 94.3214 32.004L94.6214 32.616ZM101.893 33.06C101.285 33.06 100.737 32.924 100.249 32.652C99.761 32.372 99.377 31.988 99.097 31.5C98.817 31.012 98.677 30.46 98.677 29.844C98.677 29.228 98.817 28.676 99.097 28.188C99.377 27.7 99.761 27.32 100.249 27.048C100.737 26.776 101.285 26.64 101.893 26.64C102.501 26.64 103.049 26.776 103.537 27.048C104.025 27.32 104.405 27.7 104.677 28.188C104.957 28.676 105.097 29.228 105.097 29.844C105.097 30.46 104.957 31.012 104.677 31.5C104.405 31.988 104.025 32.372 103.537 32.652C103.049 32.924 102.501 33.06 101.893 33.06ZM101.893 32.304C102.341 32.304 102.741 32.204 103.093 32.004C103.453 31.796 103.733 31.504 103.933 31.128C104.133 30.752 104.233 30.324 104.233 29.844C104.233 29.364 104.133 28.936 103.933 28.56C103.733 28.184 103.453 27.896 103.093 27.696C102.741 27.488 102.341 27.384 101.893 27.384C101.445 27.384 101.041 27.488 100.681 27.696C100.329 27.896 100.049 28.184 99.841 28.56C99.641 28.936 99.541 29.364 99.541 29.844C99.541 30.324 99.641 30.752 99.841 31.128C100.049 31.504 100.329 31.796 100.681 32.004C101.041 32.204 101.445 32.304 101.893 32.304ZM110.052 26.64C110.844 26.64 111.472 26.872 111.936 27.336C112.408 27.792 112.644 28.46 112.644 29.34V33H111.792V29.424C111.792 28.768 111.628 28.268 111.3 27.924C110.972 27.58 110.504 27.408 109.896 27.408C109.216 27.408 108.676 27.612 108.276 28.02C107.884 28.42 107.688 28.976 107.688 29.688V33H106.836V26.688H107.652V27.852C107.884 27.468 108.204 27.172 108.612 26.964C109.028 26.748 109.508 26.64 110.052 26.64ZM74.296 48.556H76.51V53.578C75.862 54.094 75.106 54.49 74.242 54.766C73.378 55.042 72.49 55.18 71.578 55.18C70.294 55.18 69.136 54.904 68.104 54.352C67.072 53.788 66.262 53.014 65.674 52.03C65.086 51.046 64.792 49.936 64.792 48.7C64.792 47.464 65.086 46.354 65.674 45.37C66.262 44.386 67.072 43.618 68.104 43.066C69.148 42.502 70.318 42.22 71.614 42.22C72.67 42.22 73.63 42.394 74.494 42.742C75.358 43.09 76.084 43.6 76.672 44.272L75.196 45.712C74.236 44.752 73.078 44.272 71.722 44.272C70.834 44.272 70.042 44.458 69.346 44.83C68.662 45.202 68.122 45.724 67.726 46.396C67.342 47.068 67.15 47.836 67.15 48.7C67.15 49.54 67.342 50.296 67.726 50.968C68.122 51.64 68.662 52.168 69.346 52.552C70.042 52.936 70.828 53.128 71.704 53.128C72.688 53.128 73.552 52.912 74.296 52.48V48.556ZM83.7003 55.126C82.7283 55.126 81.8523 54.916 81.0723 54.496C80.2923 54.076 79.6803 53.494 79.2363 52.75C78.8043 51.994 78.5883 51.142 78.5883 50.194C78.5883 49.246 78.8043 48.4 79.2363 47.656C79.6803 46.912 80.2923 46.33 81.0723 45.91C81.8523 45.49 82.7283 45.28 83.7003 45.28C84.6843 45.28 85.5663 45.49 86.3463 45.91C87.1263 46.33 87.7323 46.912 88.1643 47.656C88.6083 48.4 88.8303 49.246 88.8303 50.194C88.8303 51.142 88.6083 51.994 88.1643 52.75C87.7323 53.494 87.1263 54.076 86.3463 54.496C85.5663 54.916 84.6843 55.126 83.7003 55.126ZM83.7003 53.2C84.5283 53.2 85.2123 52.924 85.7523 52.372C86.2923 51.82 86.5623 51.094 86.5623 50.194C86.5623 49.294 86.2923 48.568 85.7523 48.016C85.2123 47.464 84.5283 47.188 83.7003 47.188C82.8723 47.188 82.1883 47.464 81.6483 48.016C81.1203 48.568 80.8563 49.294 80.8563 50.194C80.8563 51.094 81.1203 51.82 81.6483 52.372C82.1883 52.924 82.8723 53.2 83.7003 53.2ZM95.3019 55.126C94.3299 55.126 93.4539 54.916 92.6739 54.496C91.8939 54.076 91.2819 53.494 90.8379 52.75C90.4059 51.994 90.1899 51.142 90.1899 50.194C90.1899 49.246 90.4059 48.4 90.8379 47.656C91.2819 46.912 91.8939 46.33 92.6739 45.91C93.4539 45.49 94.3299 45.28 95.3019 45.28C96.2859 45.28 97.1679 45.49 97.9479 45.91C98.7279 46.33 99.3339 46.912 99.7659 47.656C100.21 48.4 100.432 49.246 100.432 50.194C100.432 51.142 100.21 51.994 99.7659 52.75C99.3339 53.494 98.7279 54.076 97.9479 54.496C97.1679 54.916 96.2859 55.126 95.3019 55.126ZM95.3019 53.2C96.1299 53.2 96.8139 52.924 97.3539 52.372C97.8939 51.82 98.1639 51.094 98.1639 50.194C98.1639 49.294 97.8939 48.568 97.3539 48.016C96.8139 47.464 96.1299 47.188 95.3019 47.188C94.4739 47.188 93.7899 47.464 93.2499 48.016C92.7219 48.568 92.4579 49.294 92.4579 50.194C92.4579 51.094 92.7219 51.82 93.2499 52.372C93.7899 52.924 94.4739 53.2 95.3019 53.2ZM112.123 45.388V53.542C112.123 56.926 110.395 58.618 106.939 58.618C106.015 58.618 105.139 58.498 104.311 58.258C103.483 58.03 102.799 57.694 102.259 57.25L103.267 55.558C103.687 55.906 104.215 56.182 104.851 56.386C105.499 56.602 106.153 56.71 106.813 56.71C107.869 56.71 108.643 56.47 109.135 55.99C109.627 55.51 109.873 54.778 109.873 53.794V53.29C109.489 53.71 109.021 54.028 108.469 54.244C107.917 54.46 107.311 54.568 106.651 54.568C105.739 54.568 104.911 54.376 104.167 53.992C103.435 53.596 102.853 53.044 102.421 52.336C102.001 51.628 101.791 50.818 101.791 49.906C101.791 48.994 102.001 48.19 102.421 47.494C102.853 46.786 103.435 46.24 104.167 45.856C104.911 45.472 105.739 45.28 106.651 45.28C107.347 45.28 107.977 45.394 108.541 45.622C109.117 45.85 109.597 46.198 109.981 46.666V45.388H112.123ZM106.993 52.66C107.845 52.66 108.541 52.408 109.081 51.904C109.633 51.388 109.909 50.722 109.909 49.906C109.909 49.102 109.633 48.448 109.081 47.944C108.541 47.44 107.845 47.188 106.993 47.188C106.129 47.188 105.421 47.44 104.869 47.944C104.329 48.448 104.059 49.102 104.059 49.906C104.059 50.722 104.329 51.388 104.869 51.904C105.421 52.408 106.129 52.66 106.993 52.66ZM115.081 41.644H117.331V55H115.081V41.644ZM129.321 50.248C129.321 50.404 129.309 50.626 129.285 50.914H121.743C121.875 51.622 122.217 52.186 122.769 52.606C123.333 53.014 124.029 53.218 124.857 53.218C125.913 53.218 126.783 52.87 127.467 52.174L128.673 53.56C128.241 54.076 127.695 54.466 127.035 54.73C126.375 54.994 125.631 55.126 124.803 55.126C123.747 55.126 122.817 54.916 122.013 54.496C121.209 54.076 120.585 53.494 120.141 52.75C119.709 51.994 119.493 51.142 119.493 50.194C119.493 49.258 119.703 48.418 120.123 47.674C120.555 46.918 121.149 46.33 121.905 45.91C122.661 45.49 123.513 45.28 124.461 45.28C125.397 45.28 126.231 45.49 126.963 45.91C127.707 46.318 128.283 46.9 128.691 47.656C129.111 48.4 129.321 49.264 129.321 50.248ZM124.461 47.08C123.741 47.08 123.129 47.296 122.625 47.728C122.133 48.148 121.833 48.712 121.725 49.42H127.179C127.083 48.724 126.789 48.16 126.297 47.728C125.805 47.296 125.193 47.08 124.461 47.08ZM141.784 45.28C142.72 45.28 143.554 45.484 144.286 45.892C145.03 46.3 145.612 46.876 146.032 47.62C146.452 48.364 146.662 49.222 146.662 50.194C146.662 51.166 146.452 52.03 146.032 52.786C145.612 53.53 145.03 54.106 144.286 54.514C143.554 54.922 142.72 55.126 141.784 55.126C140.488 55.126 139.462 54.694 138.706 53.83V58.492H136.456V45.388H138.598V46.648C138.97 46.192 139.426 45.85 139.966 45.622C140.518 45.394 141.124 45.28 141.784 45.28ZM141.532 53.2C142.36 53.2 143.038 52.924 143.566 52.372C144.106 51.82 144.376 51.094 144.376 50.194C144.376 49.294 144.106 48.568 143.566 48.016C143.038 47.464 142.36 47.188 141.532 47.188C140.992 47.188 140.506 47.314 140.074 47.566C139.642 47.806 139.3 48.154 139.048 48.61C138.796 49.066 138.67 49.594 138.67 50.194C138.67 50.794 138.796 51.322 139.048 51.778C139.3 52.234 139.642 52.588 140.074 52.84C140.506 53.08 140.992 53.2 141.532 53.2ZM148.796 41.644H151.046V55H148.796V41.644ZM157.671 45.28C159.087 45.28 160.167 45.622 160.911 46.306C161.667 46.978 162.045 47.998 162.045 49.366V55H159.921V53.83C159.645 54.25 159.249 54.574 158.733 54.802C158.229 55.018 157.617 55.126 156.897 55.126C156.177 55.126 155.547 55.006 155.007 54.766C154.467 54.514 154.047 54.172 153.747 53.74C153.459 53.296 153.315 52.798 153.315 52.246C153.315 51.382 153.633 50.692 154.269 50.176C154.917 49.648 155.931 49.384 157.311 49.384H159.795V49.24C159.795 48.568 159.591 48.052 159.183 47.692C158.787 47.332 158.193 47.152 157.401 47.152C156.861 47.152 156.327 47.236 155.799 47.404C155.283 47.572 154.845 47.806 154.485 48.106L153.603 46.468C154.107 46.084 154.713 45.79 155.421 45.586C156.129 45.382 156.879 45.28 157.671 45.28ZM157.365 53.488C157.929 53.488 158.427 53.362 158.859 53.11C159.303 52.846 159.615 52.474 159.795 51.994V50.878H157.473C156.177 50.878 155.529 51.304 155.529 52.156C155.529 52.564 155.691 52.888 156.015 53.128C156.339 53.368 156.789 53.488 157.365 53.488ZM173.757 45.388L169.257 55.774C168.837 56.818 168.327 57.55 167.727 57.97C167.127 58.402 166.401 58.618 165.549 58.618C165.069 58.618 164.595 58.54 164.127 58.384C163.659 58.228 163.275 58.012 162.975 57.736L163.875 56.08C164.091 56.284 164.343 56.446 164.631 56.566C164.931 56.686 165.231 56.746 165.531 56.746C165.927 56.746 166.251 56.644 166.503 56.44C166.767 56.236 167.007 55.894 167.223 55.414L167.385 55.036L163.191 45.388H165.531L168.555 52.498L171.597 45.388H173.757Z" fill="white"/>
<path fill-rule="evenodd" clip-rule="evenodd" d="M20.7841 54.8441C20.3091 54.706 20 54.1968 20 53.4089V27.4008C20 26.6711 20.2618 26.1789 20.6767 26L32.5127 40.4939L20.7841 54.8441ZM22.4133 54.2921L36.6602 45.5728L33.1902 41.3236L22.4133 54.2921ZM22.7101 26.6996L33.2108 39.6398L36.7584 35.2993L22.7101 26.6996ZM37.7115 35.8828L43.2149 39.2517C44.2569 39.8896 44.2664 40.9178 43.2149 41.5613L37.5723 45.0146L33.8919 40.4792L37.7115 35.8828Z" fill="white"/>
<path fill-rule="evenodd" clip-rule="evenodd" d="M20.7841 54.8441C20.3091 54.706 20 54.1968 20 53.4089V27.4008C20 26.6711 20.2618 26.1789 20.6767 26L32.5127 40.4939L20.7841 54.8441ZM22.4133 54.2921L36.6602 45.5728L33.1902 41.3236L22.4133 54.2921ZM22.7101 26.6996L33.2108 39.6398L36.7584 35.2993L22.7101 26.6996ZM37.7115 35.8828L43.2149 39.2517C44.2569 39.8896 44.2664 40.9178 43.2149 41.5613L37.5723 45.0146L33.8919 40.4792L37.7115 35.8828Z" fill="url(#paint0_linear)"/>
<defs>
<linearGradient id="paint0_linear" x1="32" y1="26" x2="32" y2="54.8441" gradientUnits="userSpaceOnUse">
<stop stop-color="#C8A86B"/>
<stop offset="1" stop-color="#725E3A"/>
</linearGradient>
</defs>
</svg>
