<svg width="24" height="30" viewBox="0 0 24 30" fill="none" xmlns="http://www.w3.org/2000/svg">
<path d="M23.9017 20.8424C23.8039 20.6891 23.6448 20.5868 23.4663 20.5623C21.1177 20.2515 19.4624 18.07 19.7692 15.6899C19.9859 14.0086 21.1475 12.6086 22.7448 12.1037C23.0691 11.9983 23.2478 11.6465 23.1439 11.3178C23.1277 11.2666 23.1051 11.2177 23.0766 11.1724C21.9988 9.20119 20.0824 7.84552 17.885 7.49994C16.7777 7.55349 15.6864 7.79038 14.6546 8.20118C13.9135 8.50341 13.131 8.6885 12.3345 8.74991C11.5379 8.6885 10.7554 8.50341 10.0144 8.20118C8.98254 7.79038 7.89128 7.55349 6.78395 7.49994C4.48112 7.49994 0 10.8086 0 16.8748C0 22.6398 4.1493 29.9997 7.4007 29.9997C8.6413 30.011 9.86698 29.7249 10.9777 29.1647C11.396 28.9309 11.8584 28.7895 12.3345 28.7497C12.8106 28.7895 13.273 28.9309 13.6913 29.1647C14.8021 29.7249 16.0278 30.011 17.2684 29.9997C19.8463 29.9997 22.756 25.5148 23.9746 21.3586C24.0256 21.184 23.999 20.9955 23.9017 20.8424Z" fill="white"/>
<path d="M23.9017 20.8424C23.8039 20.6891 23.6448 20.5868 23.4663 20.5623C21.1177 20.2515 19.4624 18.07 19.7692 15.6899C19.9859 14.0086 21.1475 12.6086 22.7448 12.1037C23.0691 11.9983 23.2478 11.6465 23.1439 11.3178C23.1277 11.2666 23.1051 11.2177 23.0766 11.1724C21.9988 9.20119 20.0824 7.84552 17.885 7.49994C16.7777 7.55349 15.6864 7.79038 14.6546 8.20118C13.9135 8.50341 13.131 8.6885 12.3345 8.74991C11.5379 8.6885 10.7554 8.50341 10.0144 8.20118C8.98254 7.79038 7.89128 7.55349 6.78395 7.49994C4.48112 7.49994 0 10.8086 0 16.8748C0 22.6398 4.1493 29.9997 7.4007 29.9997C8.6413 30.011 9.86698 29.7249 10.9777 29.1647C11.396 28.9309 11.8584 28.7895 12.3345 28.7497C12.8106 28.7895 13.273 28.9309 13.6913 29.1647C14.8021 29.7249 16.0278 30.011 17.2684 29.9997C19.8463 29.9997 22.756 25.5148 23.9746 21.3586C24.0256 21.184 23.999 20.9955 23.9017 20.8424Z" fill="url(#paint0_linear)"/>
<path d="M11.7178 7.49993C15.4627 7.49577 18.4977 4.42021 18.5017 0.625013C18.5017 0.279841 18.2256 0 17.885 0C14.14 0.00416012 11.1051 3.07972 11.1011 6.87491C11.101 7.22008 11.3772 7.49993 11.7178 7.49993Z" fill="white"/>
<path d="M11.7178 7.49993C15.4627 7.49577 18.4977 4.42021 18.5017 0.625013C18.5017 0.279841 18.2256 0 17.885 0C14.14 0.00416012 11.1051 3.07972 11.1011 6.87491C11.101 7.22008 11.3772 7.49993 11.7178 7.49993Z" fill="url(#paint1_linear)"/>
<defs>
<linearGradient id="paint0_linear" x1="12" y1="7.49994" x2="12" y2="30" gradientUnits="userSpaceOnUse">
<stop stop-color="#C8A86B"/>
<stop offset="1" stop-color="#725E3A"/>
</linearGradient>
<linearGradient id="paint1_linear" x1="14.8014" y1="0" x2="14.8014" y2="7.49993" gradientUnits="userSpaceOnUse">
<stop stop-color="#C8A86B"/>
<stop offset="1" stop-color="#725E3A"/>
</linearGradient>
</defs>
</svg>
