<svg width="134" height="100" viewBox="0 0 134 100" fill="none" xmlns="http://www.w3.org/2000/svg">
<path d="M37.4203 77.8813V58.5079H59.1654C59.1654 58.5079 15.6803 15.3745 1.18498 0.996172C0.250913 0.0688495 -0.663079 -0.681497 0.669902 0.997216C6.12834 7.87148 14.9383 22.0339 14.9383 41.8419V93.4254C14.9383 96.5066 17.4553 99.0037 20.561 99.0037H82.839C85.48 99.0037 91.5003 98.8133 97.9455 96.9713L78.6944 77.8813H37.4203ZM132.664 99.0027C129.913 95.5396 126.315 90.2268 123.418 83.2735C124.337 80.3493 124.859 77.0098 124.859 73.1909C124.859 73.1909 125.599 58.8087 111.25 52.2069C118.351 48.5388 123.379 41.9367 123.379 30.9298C123.379 0.264525 87.583 0.997216 87.583 0.997216H33.3459L54.2045 21.6877H87.583C87.583 21.6877 100.599 21.54 100.599 32.1077C100.599 41.6428 87.583 41.6428 87.583 41.6428H74.3213C74.3213 41.6428 117.654 84.6252 132.148 99.0037C133.083 99.9303 133.996 100.682 132.664 99.0027Z" fill="#262628"/>
</svg>
