<svg width="144" height="123" viewBox="0 0 144 123" fill="none" xmlns="http://www.w3.org/2000/svg">
<path d="M53.6663 48.6537V36.5749H67.2976C67.2976 36.5749 40.0382 9.68255 30.9516 0.718099C30.366 0.139941 29.7931 -0.327877 30.6287 0.718749C34.0504 5.00464 39.5731 13.8345 39.5731 26.1842V58.3449C39.5731 60.266 41.1509 61.8229 43.0978 61.8229H82.1378C83.7934 61.8229 87.5673 61.7041 91.6076 60.5557L79.5397 48.6537H53.6663ZM113.371 61.8222C111.647 59.6631 109.392 56.3507 107.576 52.0155C108.151 50.1924 108.479 48.1103 108.479 45.7293C108.479 45.7293 108.943 36.7625 99.948 32.6464C104.399 30.3595 107.551 26.2433 107.551 19.3808C107.551 0.261939 85.1117 0.718749 85.1117 0.718749H51.1122L64.1878 13.6187H85.1117C85.1117 13.6187 93.2709 13.5265 93.2709 20.1152C93.2709 26.06 85.1117 26.06 85.1117 26.06H76.7983C76.7983 26.06 103.962 52.8583 113.048 61.8229C113.634 62.4005 114.206 62.8693 113.371 61.8222Z" fill="#2B2A29"/>
<path d="M53.6663 48.6537V36.5749H67.2976C67.2976 36.5749 40.0382 9.68255 30.9516 0.718099C30.366 0.139941 29.7931 -0.327877 30.6287 0.718749C34.0504 5.00464 39.5731 13.8345 39.5731 26.1842V58.3449C39.5731 60.266 41.1509 61.8229 43.0978 61.8229H82.1378C83.7934 61.8229 87.5673 61.7041 91.6076 60.5557L79.5397 48.6537H53.6663ZM113.371 61.8222C111.647 59.6631 109.392 56.3507 107.576 52.0155C108.151 50.1924 108.479 48.1103 108.479 45.7293C108.479 45.7293 108.943 36.7625 99.948 32.6464C104.399 30.3595 107.551 26.2433 107.551 19.3808C107.551 0.261939 85.1117 0.718749 85.1117 0.718749H51.1122L64.1878 13.6187H85.1117C85.1117 13.6187 93.2709 13.5265 93.2709 20.1152C93.2709 26.06 85.1117 26.06 85.1117 26.06H76.7983C76.7983 26.06 103.962 52.8583 113.048 61.8229C113.634 62.4005 114.206 62.8693 113.371 61.8222Z" fill="url(#paint0_linear)"/>
<path d="M17.0113 103.385H22.0262L30.0064 113.499V103.385H35.3266V122.519H30.6164L22.3314 112.023V122.519H17.0113V103.385ZM134.608 86.4783C136.533 86.4783 137.642 85.5575 137.642 84.0896V84.0322C137.642 82.4496 136.475 81.644 134.579 81.644H130.875V86.4783H134.608ZM125.217 76.81H134.871C137.991 76.81 140.15 77.6157 141.521 78.9968C142.717 80.1482 143.329 81.7017 143.329 83.6872V83.7445C143.329 86.8237 141.667 88.8665 139.129 89.9312L144 96.9521H137.467L133.354 90.8517H130.875V96.9521H125.217V76.81ZM105.762 76.81H122.183V81.5577H111.362V84.6075H121.162V89.0106H111.362V92.2046H122.329V96.9521H105.762V76.81ZM84.47 76.81H90.128V84.9821L97.1575 76.81H103.865L96.1364 85.4714L104.128 96.9521H97.3323L92.1984 89.4708L90.128 91.7441V96.9521H84.47V76.81ZM73.2978 89.0106L71.0229 83.2843L68.7185 89.0106H73.2978ZM68.3391 76.6659H73.7934L82.4853 96.9521H76.4188L74.9312 93.3552H67.0562L65.5974 96.9521H59.6478L68.3391 76.6659ZM41.8263 76.81H58.2471V81.5577H47.4264V84.6075H57.2264V89.0106H47.4264V92.2046H58.3931V96.9521H41.8263V76.81ZM30.2468 86.4783C32.1713 86.4783 33.2798 85.5575 33.2798 84.0896V84.0322C33.2798 82.4496 32.1135 81.644 30.2174 81.644H26.5132V86.4783H30.2468ZM20.8551 76.81H30.5093C33.6297 76.81 35.7878 77.6157 37.1592 78.9968C38.3547 80.1482 38.9673 81.7017 38.9673 83.6872V83.7445C38.9673 86.8237 37.3049 88.8665 34.7672 89.9312L39.6381 96.9521H33.1049L28.9924 90.8517H26.5132V96.9521H20.8551V76.81ZM9.88687 92.4634C11.608 92.4634 12.5996 91.802 12.5996 90.6218V90.5642C12.5996 89.4708 11.7249 88.7515 9.82906 88.7515H5.51205V92.4634H9.88687ZM9.07062 84.8378C10.7916 84.8378 11.7542 84.2626 11.7542 83.0827V83.0253C11.7542 81.9317 10.8788 81.2988 9.18686 81.2988H5.51205V84.8378H9.07062ZM0 76.81H10.4703C13.0373 76.81 14.8458 77.443 16.0413 78.6229C16.8581 79.4288 17.3542 80.4935 17.3542 81.8744V81.9317C17.3542 84.2626 16.0124 85.6434 14.2039 86.4208C16.6834 87.2264 18.2588 88.6079 18.2588 91.3415V91.3988C18.2588 94.8516 15.3999 96.9521 10.5292 96.9521H0V76.81ZM108.674 103.385H113.688L121.668 113.499V103.385H126.989V122.519H122.278L113.993 112.023V122.519H108.674V103.385ZM100.388 113.007V112.952C100.388 110.191 98.3651 107.785 95.4004 107.785C92.4632 107.785 90.4958 110.136 90.4958 112.897V112.952C90.4958 115.713 92.5188 118.119 95.4557 118.119C98.4211 118.119 100.388 115.768 100.388 113.007ZM84.9819 113.007V112.952C84.9819 107.458 89.4706 103.001 95.4557 103.001C101.441 103.001 105.874 107.403 105.874 112.897V112.952C105.874 118.447 101.385 122.902 95.4004 122.902C89.4154 122.902 84.9819 118.501 84.9819 113.007ZM76.697 122.519H82.1003V103.385H76.697V122.519ZM63.0361 108.032H57.2175V103.385H74.2301V108.032H68.412V122.519H63.0361V108.032ZM50.1789 114.975L48.0177 109.535L45.8285 114.975H50.1789ZM45.4681 103.248H50.6499L58.9067 122.519H53.1433L51.7304 119.103H44.2495L42.8641 122.519H37.2111L45.4681 103.248Z" fill="#2B2A29"/>
<path d="M17.0113 103.385H22.0262L30.0064 113.499V103.385H35.3266V122.519H30.6164L22.3314 112.023V122.519H17.0113V103.385ZM134.608 86.4783C136.533 86.4783 137.642 85.5575 137.642 84.0896V84.0322C137.642 82.4496 136.475 81.644 134.579 81.644H130.875V86.4783H134.608ZM125.217 76.81H134.871C137.991 76.81 140.15 77.6157 141.521 78.9968C142.717 80.1482 143.329 81.7017 143.329 83.6872V83.7445C143.329 86.8237 141.667 88.8665 139.129 89.9312L144 96.9521H137.467L133.354 90.8517H130.875V96.9521H125.217V76.81ZM105.762 76.81H122.183V81.5577H111.362V84.6075H121.162V89.0106H111.362V92.2046H122.329V96.9521H105.762V76.81ZM84.47 76.81H90.128V84.9821L97.1575 76.81H103.865L96.1364 85.4714L104.128 96.9521H97.3323L92.1984 89.4708L90.128 91.7441V96.9521H84.47V76.81ZM73.2978 89.0106L71.0229 83.2843L68.7185 89.0106H73.2978ZM68.3391 76.6659H73.7934L82.4853 96.9521H76.4188L74.9312 93.3552H67.0562L65.5974 96.9521H59.6478L68.3391 76.6659ZM41.8263 76.81H58.2471V81.5577H47.4264V84.6075H57.2264V89.0106H47.4264V92.2046H58.3931V96.9521H41.8263V76.81ZM30.2468 86.4783C32.1713 86.4783 33.2798 85.5575 33.2798 84.0896V84.0322C33.2798 82.4496 32.1135 81.644 30.2174 81.644H26.5132V86.4783H30.2468ZM20.8551 76.81H30.5093C33.6297 76.81 35.7878 77.6157 37.1592 78.9968C38.3547 80.1482 38.9673 81.7017 38.9673 83.6872V83.7445C38.9673 86.8237 37.3049 88.8665 34.7672 89.9312L39.6381 96.9521H33.1049L28.9924 90.8517H26.5132V96.9521H20.8551V76.81ZM9.88687 92.4634C11.608 92.4634 12.5996 91.802 12.5996 90.6218V90.5642C12.5996 89.4708 11.7249 88.7515 9.82906 88.7515H5.51205V92.4634H9.88687ZM9.07062 84.8378C10.7916 84.8378 11.7542 84.2626 11.7542 83.0827V83.0253C11.7542 81.9317 10.8788 81.2988 9.18686 81.2988H5.51205V84.8378H9.07062ZM0 76.81H10.4703C13.0373 76.81 14.8458 77.443 16.0413 78.6229C16.8581 79.4288 17.3542 80.4935 17.3542 81.8744V81.9317C17.3542 84.2626 16.0124 85.6434 14.2039 86.4208C16.6834 87.2264 18.2588 88.6079 18.2588 91.3415V91.3988C18.2588 94.8516 15.3999 96.9521 10.5292 96.9521H0V76.81ZM108.674 103.385H113.688L121.668 113.499V103.385H126.989V122.519H122.278L113.993 112.023V122.519H108.674V103.385ZM100.388 113.007V112.952C100.388 110.191 98.3651 107.785 95.4004 107.785C92.4632 107.785 90.4958 110.136 90.4958 112.897V112.952C90.4958 115.713 92.5188 118.119 95.4557 118.119C98.4211 118.119 100.388 115.768 100.388 113.007ZM84.9819 113.007V112.952C84.9819 107.458 89.4706 103.001 95.4557 103.001C101.441 103.001 105.874 107.403 105.874 112.897V112.952C105.874 118.447 101.385 122.902 95.4004 122.902C89.4154 122.902 84.9819 118.501 84.9819 113.007ZM76.697 122.519H82.1003V103.385H76.697V122.519ZM63.0361 108.032H57.2175V103.385H74.2301V108.032H68.412V122.519H63.0361V108.032ZM50.1789 114.975L48.0177 109.535L45.8285 114.975H50.1789ZM45.4681 103.248H50.6499L58.9067 122.519H53.1433L51.7304 119.103H44.2495L42.8641 122.519H37.2111L45.4681 103.248Z" fill="url(#paint1_linear)"/>
<defs>
<linearGradient id="paint0_linear" x1="71.9999" y1="0.0957551" x2="71.9999" y2="62.444" gradientUnits="userSpaceOnUse">
<stop stop-color="#C8A86B"/>
<stop offset="1" stop-color="#725E3A"/>
</linearGradient>
<linearGradient id="paint1_linear" x1="72" y1="76.665" x2="72" y2="122.902" gradientUnits="userSpaceOnUse">
<stop stop-color="#C8A86B"/>
<stop offset="1" stop-color="#725E3A"/>
</linearGradient>
</defs>
</svg>
