<svg width="84" height="28" viewBox="0 0 84 28" fill="none" xmlns="http://www.w3.org/2000/svg">
<path d="M0.254174 16.4944H3.17955L7.83468 22.4078V16.4944H10.9381V27.6818H8.19048L3.35758 21.5448V27.6818H0.254174V16.4944ZM78.5216 6.60989C79.6444 6.60989 80.2911 6.07154 80.2911 5.2133V5.17976C80.2911 4.25447 79.6105 3.78346 78.5046 3.78346H76.3438V6.60989H78.5216ZM73.0432 0.957217H78.6747C80.4949 0.957217 81.7541 1.42823 82.5537 2.23575C83.2515 2.90889 83.6087 3.81719 83.6087 4.97802V5.01155C83.6087 6.81182 82.639 8.00619 81.1587 8.6287L84 12.7336H80.1889L77.7898 9.16686H76.3438V12.7336H73.0432V0.957217ZM61.6945 0.957217H71.2733V3.73302H64.961V5.51611H70.6776V8.09045H64.961V9.95786H71.3583V12.7336H61.6945V0.957217ZM49.2742 0.957217H52.5747V5.73513L56.6752 0.957217H60.5882L56.0796 6.0212L60.7413 12.7336H56.7772L53.7824 8.35953L52.5747 9.6886V12.7336H49.2742V0.957217ZM42.757 8.09045L41.43 4.74248L40.0858 8.09045H42.757ZM39.8645 0.872955H43.0461L48.1164 12.7336H44.5776L43.7099 10.6306H39.1161L38.2652 12.7336H34.7945L39.8645 0.872955ZM24.3987 0.957217H33.9775V3.73302H27.6654V5.51611H33.382V8.09045H27.6654V9.95786H34.0627V12.7336H24.3987V0.957217ZM17.644 6.60989C18.7666 6.60989 19.4132 6.07154 19.4132 5.2133V5.17976C19.4132 4.25447 18.7329 3.78346 17.6268 3.78346H15.466V6.60989H17.644ZM12.1655 0.957217H17.7971C19.6173 0.957217 20.8762 1.42823 21.6762 2.23575C22.3735 2.90889 22.7309 3.81719 22.7309 4.97802V5.01155C22.7309 6.81182 21.7612 8.00619 20.2809 8.6287L23.1222 12.7336H19.3112L16.9122 9.16686H15.466V12.7336H12.1655V0.957217ZM5.76734 10.1092C6.77132 10.1092 7.34974 9.72248 7.34974 9.03245V8.99875C7.34974 8.35953 6.83951 7.93895 5.73362 7.93895H3.21536V10.1092H5.76734ZM5.29119 5.65077C6.29508 5.65077 6.8566 5.31446 6.8566 4.62461V4.59107C6.8566 3.95166 6.34599 3.58162 5.359 3.58162H3.21536V5.65077H5.29119ZM0 0.957217H6.10766C7.60507 0.957217 8.66006 1.32726 9.35742 2.01711C9.83392 2.48831 10.1233 3.11079 10.1233 3.91815V3.95166C10.1233 5.31446 9.34059 6.12179 8.28563 6.57625C9.732 7.04727 10.651 7.85498 10.651 9.45322V9.48676C10.651 11.5055 8.98328 12.7336 6.14206 12.7336H0V0.957217ZM53.7239 16.4944H56.6492L61.3041 22.4078V16.4944H64.4077V27.6818H61.6599L56.8269 21.5448V27.6818H53.7239V16.4944ZM48.8906 22.1201V22.0882C48.8906 20.474 47.7106 19.0674 45.9811 19.0674C44.2678 19.0674 43.1202 20.442 43.1202 22.0561V22.0882C43.1202 23.7025 44.3003 25.1088 46.0134 25.1088C47.7432 25.1088 48.8906 23.7344 48.8906 22.1201ZM39.9037 22.1201V22.0882C39.9037 18.8758 42.5221 16.2702 46.0134 16.2702C49.5047 16.2702 52.0908 18.8437 52.0908 22.0561V22.0882C52.0908 25.3006 49.4724 27.9058 45.9811 27.9058C42.4899 27.9058 39.9037 25.3326 39.9037 22.1201ZM35.0709 27.6818H38.2228V16.4944H35.0709V27.6818ZM27.102 19.2114H23.7078V16.4944H33.6318V19.2114H30.238V27.6818H27.102V19.2114ZM19.602 23.2708L18.3412 20.0906L17.0642 23.2708H19.602ZM16.854 16.4145H19.8767L24.6932 27.6818H21.3312L20.507 25.6841H16.1431L15.335 27.6818H12.0374L16.854 16.4145Z" fill="#2B2A29"/>
<path d="M0.254174 16.4944H3.17955L7.83468 22.4078V16.4944H10.9381V27.6818H8.19048L3.35758 21.5448V27.6818H0.254174V16.4944ZM78.5216 6.60989C79.6444 6.60989 80.2911 6.07154 80.2911 5.2133V5.17976C80.2911 4.25447 79.6105 3.78346 78.5046 3.78346H76.3438V6.60989H78.5216ZM73.0432 0.957217H78.6747C80.4949 0.957217 81.7541 1.42823 82.5537 2.23575C83.2515 2.90889 83.6087 3.81719 83.6087 4.97802V5.01155C83.6087 6.81182 82.639 8.00619 81.1587 8.6287L84 12.7336H80.1889L77.7898 9.16686H76.3438V12.7336H73.0432V0.957217ZM61.6945 0.957217H71.2733V3.73302H64.961V5.51611H70.6776V8.09045H64.961V9.95786H71.3583V12.7336H61.6945V0.957217ZM49.2742 0.957217H52.5747V5.73513L56.6752 0.957217H60.5882L56.0796 6.0212L60.7413 12.7336H56.7772L53.7824 8.35953L52.5747 9.6886V12.7336H49.2742V0.957217ZM42.757 8.09045L41.43 4.74248L40.0858 8.09045H42.757ZM39.8645 0.872955H43.0461L48.1164 12.7336H44.5776L43.7099 10.6306H39.1161L38.2652 12.7336H34.7945L39.8645 0.872955ZM24.3987 0.957217H33.9775V3.73302H27.6654V5.51611H33.382V8.09045H27.6654V9.95786H34.0627V12.7336H24.3987V0.957217ZM17.644 6.60989C18.7666 6.60989 19.4132 6.07154 19.4132 5.2133V5.17976C19.4132 4.25447 18.7329 3.78346 17.6268 3.78346H15.466V6.60989H17.644ZM12.1655 0.957217H17.7971C19.6173 0.957217 20.8762 1.42823 21.6762 2.23575C22.3735 2.90889 22.7309 3.81719 22.7309 4.97802V5.01155C22.7309 6.81182 21.7612 8.00619 20.2809 8.6287L23.1222 12.7336H19.3112L16.9122 9.16686H15.466V12.7336H12.1655V0.957217ZM5.76734 10.1092C6.77132 10.1092 7.34974 9.72248 7.34974 9.03245V8.99875C7.34974 8.35953 6.83951 7.93895 5.73362 7.93895H3.21536V10.1092H5.76734ZM5.29119 5.65077C6.29508 5.65077 6.8566 5.31446 6.8566 4.62461V4.59107C6.8566 3.95166 6.34599 3.58162 5.359 3.58162H3.21536V5.65077H5.29119ZM0 0.957217H6.10766C7.60507 0.957217 8.66006 1.32726 9.35742 2.01711C9.83392 2.48831 10.1233 3.11079 10.1233 3.91815V3.95166C10.1233 5.31446 9.34059 6.12179 8.28563 6.57625C9.732 7.04727 10.651 7.85498 10.651 9.45322V9.48676C10.651 11.5055 8.98328 12.7336 6.14206 12.7336H0V0.957217ZM53.7239 16.4944H56.6492L61.3041 22.4078V16.4944H64.4077V27.6818H61.6599L56.8269 21.5448V27.6818H53.7239V16.4944ZM48.8906 22.1201V22.0882C48.8906 20.474 47.7106 19.0674 45.9811 19.0674C44.2678 19.0674 43.1202 20.442 43.1202 22.0561V22.0882C43.1202 23.7025 44.3003 25.1088 46.0134 25.1088C47.7432 25.1088 48.8906 23.7344 48.8906 22.1201ZM39.9037 22.1201V22.0882C39.9037 18.8758 42.5221 16.2702 46.0134 16.2702C49.5047 16.2702 52.0908 18.8437 52.0908 22.0561V22.0882C52.0908 25.3006 49.4724 27.9058 45.9811 27.9058C42.4899 27.9058 39.9037 25.3326 39.9037 22.1201ZM35.0709 27.6818H38.2228V16.4944H35.0709V27.6818ZM27.102 19.2114H23.7078V16.4944H33.6318V19.2114H30.238V27.6818H27.102V19.2114ZM19.602 23.2708L18.3412 20.0906L17.0642 23.2708H19.602ZM16.854 16.4145H19.8767L24.6932 27.6818H21.3312L20.507 25.6841H16.1431L15.335 27.6818H12.0374L16.854 16.4145Z" fill="url(#paint0_linear)"/>
<defs>
<linearGradient id="paint0_linear" x1="42" y1="0.872409" x2="42" y2="27.9058" gradientUnits="userSpaceOnUse">
<stop stop-color="#C8A86B"/>
<stop offset="1" stop-color="#725E3A"/>
</linearGradient>
</defs>
</svg>
