<svg width="121" height="34" viewBox="0 0 121 34" fill="none" xmlns="http://www.w3.org/2000/svg">
<path d="M12.7229 26.4797V19.8927H20.1162C20.1162 19.8927 5.33131 5.22733 0.402894 0.338699C0.0853103 0.0234088 -0.225447 -0.231709 0.227767 0.339053C2.08364 2.6763 5.07901 7.49152 5.07901 14.2262V31.7646C5.07901 32.8122 5.93479 33.6613 6.99074 33.6613H28.1653C29.0632 33.6613 31.1101 33.5965 33.3015 32.9703L26.7561 26.4797H12.7229ZM45.1057 33.6609C44.1706 32.4835 42.9472 30.6771 41.9622 28.313C42.2745 27.3188 42.4519 26.1833 42.4519 24.8849C42.4519 24.8849 42.7036 19.995 37.8251 17.7503C40.2392 16.5032 41.9489 14.2585 41.9489 10.5161C41.9489 0.0899384 29.7782 0.339053 29.7782 0.339053H11.3376L18.4295 7.37383H29.7782C29.7782 7.37383 34.2036 7.3236 34.2036 10.9166C34.2036 14.1586 29.7782 14.1586 29.7782 14.1586H25.2692C25.2692 14.1586 40.0024 28.7726 44.9303 33.6613C45.2482 33.9763 45.5586 34.2319 45.1057 33.6609Z" fill="#2B2A29"/>
<path d="M12.7229 26.4797V19.8927H20.1162C20.1162 19.8927 5.33131 5.22733 0.402894 0.338699C0.0853103 0.0234088 -0.225447 -0.231709 0.227767 0.339053C2.08364 2.6763 5.07901 7.49152 5.07901 14.2262V31.7646C5.07901 32.8122 5.93479 33.6613 6.99074 33.6613H28.1653C29.0632 33.6613 31.1101 33.5965 33.3015 32.9703L26.7561 26.4797H12.7229ZM45.1057 33.6609C44.1706 32.4835 42.9472 30.6771 41.9622 28.313C42.2745 27.3188 42.4519 26.1833 42.4519 24.8849C42.4519 24.8849 42.7036 19.995 37.8251 17.7503C40.2392 16.5032 41.9489 14.2585 41.9489 10.5161C41.9489 0.0899384 29.7782 0.339053 29.7782 0.339053H11.3376L18.4295 7.37383H29.7782C29.7782 7.37383 34.2036 7.3236 34.2036 10.9166C34.2036 14.1586 29.7782 14.1586 29.7782 14.1586H25.2692C25.2692 14.1586 40.0024 28.7726 44.9303 33.6613C45.2482 33.9763 45.5586 34.2319 45.1057 33.6609Z" fill="url(#paint0_linear_connect)"/>
<path d="M64.0707 6.608C64.5667 6.792 64.9507 7.06 65.2227 7.412C65.4947 7.764 65.6307 8.188 65.6307 8.684C65.6307 9.42 65.3267 9.992 64.7187 10.4C64.1107 10.8 63.2307 11 62.0787 11H57.3507V2.6H61.8387C62.9587 2.6 63.8027 2.8 64.3707 3.2C64.9467 3.6 65.2347 4.132 65.2347 4.796C65.2347 5.188 65.1347 5.54 64.9347 5.852C64.7427 6.164 64.4547 6.416 64.0707 6.608ZM60.1347 4.58V5.828H61.4547C62.0707 5.828 62.3787 5.62 62.3787 5.204C62.3787 4.788 62.0707 4.58 61.4547 4.58H60.1347ZM61.8387 9.02C62.4627 9.02 62.7747 8.8 62.7747 8.36C62.7747 7.92 62.4627 7.7 61.8387 7.7H60.1347V9.02H61.8387ZM70.232 8.888H69.464V11H66.632V2.6H70.676C71.452 2.6 72.128 2.728 72.704 2.984C73.28 3.24 73.724 3.608 74.036 4.088C74.348 4.568 74.504 5.128 74.504 5.768C74.504 6.368 74.368 6.892 74.096 7.34C73.824 7.788 73.432 8.144 72.92 8.408L74.684 11H71.66L70.232 8.888ZM71.648 5.768C71.648 5.456 71.552 5.216 71.36 5.048C71.168 4.872 70.88 4.784 70.496 4.784H69.464V6.752H70.496C70.88 6.752 71.168 6.668 71.36 6.5C71.552 6.324 71.648 6.08 71.648 5.768ZM82.5574 8.864V11H75.5734V2.6H82.4014V4.736H78.3574V5.72H81.9094V7.76H78.3574V8.864H82.5574ZM89.3716 9.536H86.1796L85.6156 11H82.7356L86.4076 2.6H89.1916L92.8636 11H89.9356L89.3716 9.536ZM88.5916 7.496L87.7756 5.384L86.9596 7.496H88.5916ZM96.7356 8.216L96.0996 8.924V11H93.3156V2.6H96.0996V5.648L98.8596 2.6H101.944L98.5836 6.296L102.112 11H98.8356L96.7356 8.216ZM109.475 8.864V11H102.491V2.6H109.319V4.736H105.275V5.72H108.827V7.76H105.275V8.864H109.475ZM114.166 8.888H113.398V11H110.566V2.6H114.61C115.386 2.6 116.062 2.728 116.638 2.984C117.214 3.24 117.658 3.608 117.97 4.088C118.282 4.568 118.438 5.128 118.438 5.768C118.438 6.368 118.302 6.892 118.03 7.34C117.758 7.788 117.366 8.144 116.854 8.408L118.618 11H115.594L114.166 8.888ZM115.582 5.768C115.582 5.456 115.486 5.216 115.294 5.048C115.102 4.872 114.814 4.784 114.43 4.784H113.398V6.752H114.43C114.814 6.752 115.102 6.668 115.294 6.5C115.486 6.324 115.582 6.08 115.582 5.768ZM65.6307 13.6V22H63.3027L60.1107 18.184V22H57.3507V13.6H59.6787L62.8707 17.416V13.6H65.6307ZM72.7193 20.536H69.5273L68.9633 22H66.0833L69.7553 13.6H72.5393L76.2113 22H73.2833L72.7193 20.536ZM71.9393 18.496L71.1233 16.384L70.3073 18.496H71.9393ZM78.0654 15.796H75.6054V13.6H83.3574V15.796H80.8974V22H78.0654V15.796ZM84.0929 13.6H86.9249V22H84.0929V13.6ZM92.6922 22.192C91.7882 22.192 90.9762 22.004 90.2562 21.628C89.5362 21.252 88.9722 20.732 88.5642 20.068C88.1562 19.396 87.9522 18.64 87.9522 17.8C87.9522 16.96 88.1562 16.208 88.5642 15.544C88.9722 14.872 89.5362 14.348 90.2562 13.972C90.9762 13.596 91.7882 13.408 92.6922 13.408C93.5962 13.408 94.4082 13.596 95.1282 13.972C95.8482 14.348 96.4122 14.872 96.8202 15.544C97.2282 16.208 97.4322 16.96 97.4322 17.8C97.4322 18.64 97.2282 19.396 96.8202 20.068C96.4122 20.732 95.8482 21.252 95.1282 21.628C94.4082 22.004 93.5962 22.192 92.6922 22.192ZM92.6922 19.9C93.0442 19.9 93.3602 19.816 93.6402 19.648C93.9282 19.472 94.1562 19.228 94.3242 18.916C94.4922 18.596 94.5762 18.224 94.5762 17.8C94.5762 17.376 94.4922 17.008 94.3242 16.696C94.1562 16.376 93.9282 16.132 93.6402 15.964C93.3602 15.788 93.0442 15.7 92.6922 15.7C92.3402 15.7 92.0202 15.788 91.7322 15.964C91.4522 16.132 91.2282 16.376 91.0602 16.696C90.8922 17.008 90.8082 17.376 90.8082 17.8C90.8082 18.224 90.8922 18.596 91.0602 18.916C91.2282 19.228 91.4522 19.472 91.7322 19.648C92.0202 19.816 92.3402 19.9 92.6922 19.9ZM106.74 13.6V22H104.412L101.22 18.184V22H98.4601V13.6H100.788L103.98 17.416V13.6H106.74ZM61.6947 33.192C60.8067 33.192 60.0067 33.008 59.2947 32.64C58.5827 32.264 58.0227 31.744 57.6147 31.08C57.2147 30.408 57.0147 29.648 57.0147 28.8C57.0147 27.952 57.2147 27.196 57.6147 26.532C58.0227 25.86 58.5827 25.34 59.2947 24.972C60.0067 24.596 60.8067 24.408 61.6947 24.408C62.5107 24.408 63.2387 24.552 63.8787 24.84C64.5187 25.128 65.0467 25.544 65.4627 26.088L63.6747 27.684C63.1547 27.028 62.5427 26.7 61.8387 26.7C61.2467 26.7 60.7707 26.892 60.4107 27.276C60.0507 27.652 59.8707 28.16 59.8707 28.8C59.8707 29.44 60.0507 29.952 60.4107 30.336C60.7707 30.712 61.2467 30.9 61.8387 30.9C62.5427 30.9 63.1547 30.572 63.6747 29.916L65.4627 31.512C65.0467 32.056 64.5187 32.472 63.8787 32.76C63.2387 33.048 62.5107 33.192 61.6947 33.192ZM70.5087 33.192C69.6047 33.192 68.7927 33.004 68.0727 32.628C67.3527 32.252 66.7887 31.732 66.3807 31.068C65.9727 30.396 65.7687 29.64 65.7687 28.8C65.7687 27.96 65.9727 27.208 66.3807 26.544C66.7887 25.872 67.3527 25.348 68.0727 24.972C68.7927 24.596 69.6047 24.408 70.5087 24.408C71.4127 24.408 72.2247 24.596 72.9447 24.972C73.6647 25.348 74.2287 25.872 74.6367 26.544C75.0447 27.208 75.2487 27.96 75.2487 28.8C75.2487 29.64 75.0447 30.396 74.6367 31.068C74.2287 31.732 73.6647 32.252 72.9447 32.628C72.2247 33.004 71.4127 33.192 70.5087 33.192ZM70.5087 30.9C70.8607 30.9 71.1767 30.816 71.4567 30.648C71.7447 30.472 71.9727 30.228 72.1407 29.916C72.3087 29.596 72.3927 29.224 72.3927 28.8C72.3927 28.376 72.3087 28.008 72.1407 27.696C71.9727 27.376 71.7447 27.132 71.4567 26.964C71.1767 26.788 70.8607 26.7 70.5087 26.7C70.1567 26.7 69.8367 26.788 69.5487 26.964C69.2687 27.132 69.0447 27.376 68.8767 27.696C68.7087 28.008 68.6247 28.376 68.6247 28.8C68.6247 29.224 68.7087 29.596 68.8767 29.916C69.0447 30.228 69.2687 30.472 69.5487 30.648C69.8367 30.816 70.1567 30.9 70.5087 30.9ZM84.5565 24.6V33H82.2285L79.0365 29.184V33H76.2765V24.6H78.6045L81.7965 28.416V24.6H84.5565ZM94.2011 24.6V33H91.8731L88.6811 29.184V33H85.9211V24.6H88.2491L91.4411 28.416V24.6H94.2011ZM102.55 30.864V33H95.5656V24.6H102.394V26.736H98.3496V27.72H101.902V29.76H98.3496V30.864H102.55ZM107.984 33.192C107.096 33.192 106.296 33.008 105.584 32.64C104.872 32.264 104.312 31.744 103.904 31.08C103.504 30.408 103.304 29.648 103.304 28.8C103.304 27.952 103.504 27.196 103.904 26.532C104.312 25.86 104.872 25.34 105.584 24.972C106.296 24.596 107.096 24.408 107.984 24.408C108.8 24.408 109.528 24.552 110.168 24.84C110.808 25.128 111.336 25.544 111.752 26.088L109.964 27.684C109.444 27.028 108.832 26.7 108.128 26.7C107.536 26.7 107.06 26.892 106.7 27.276C106.34 27.652 106.16 28.16 106.16 28.8C106.16 29.44 106.34 29.952 106.7 30.336C107.06 30.712 107.536 30.9 108.128 30.9C108.832 30.9 109.444 30.572 109.964 29.916L111.752 31.512C111.336 32.056 110.808 32.472 110.168 32.76C109.528 33.048 108.8 33.192 107.984 33.192ZM114.335 26.796H111.875V24.6H119.627V26.796H117.167V33H114.335V26.796Z" fill="white"/>
<path d="M64.0707 6.608C64.5667 6.792 64.9507 7.06 65.2227 7.412C65.4947 7.764 65.6307 8.188 65.6307 8.684C65.6307 9.42 65.3267 9.992 64.7187 10.4C64.1107 10.8 63.2307 11 62.0787 11H57.3507V2.6H61.8387C62.9587 2.6 63.8027 2.8 64.3707 3.2C64.9467 3.6 65.2347 4.132 65.2347 4.796C65.2347 5.188 65.1347 5.54 64.9347 5.852C64.7427 6.164 64.4547 6.416 64.0707 6.608ZM60.1347 4.58V5.828H61.4547C62.0707 5.828 62.3787 5.62 62.3787 5.204C62.3787 4.788 62.0707 4.58 61.4547 4.58H60.1347ZM61.8387 9.02C62.4627 9.02 62.7747 8.8 62.7747 8.36C62.7747 7.92 62.4627 7.7 61.8387 7.7H60.1347V9.02H61.8387ZM70.232 8.888H69.464V11H66.632V2.6H70.676C71.452 2.6 72.128 2.728 72.704 2.984C73.28 3.24 73.724 3.608 74.036 4.088C74.348 4.568 74.504 5.128 74.504 5.768C74.504 6.368 74.368 6.892 74.096 7.34C73.824 7.788 73.432 8.144 72.92 8.408L74.684 11H71.66L70.232 8.888ZM71.648 5.768C71.648 5.456 71.552 5.216 71.36 5.048C71.168 4.872 70.88 4.784 70.496 4.784H69.464V6.752H70.496C70.88 6.752 71.168 6.668 71.36 6.5C71.552 6.324 71.648 6.08 71.648 5.768ZM82.5574 8.864V11H75.5734V2.6H82.4014V4.736H78.3574V5.72H81.9094V7.76H78.3574V8.864H82.5574ZM89.3716 9.536H86.1796L85.6156 11H82.7356L86.4076 2.6H89.1916L92.8636 11H89.9356L89.3716 9.536ZM88.5916 7.496L87.7756 5.384L86.9596 7.496H88.5916ZM96.7356 8.216L96.0996 8.924V11H93.3156V2.6H96.0996V5.648L98.8596 2.6H101.944L98.5836 6.296L102.112 11H98.8356L96.7356 8.216ZM109.475 8.864V11H102.491V2.6H109.319V4.736H105.275V5.72H108.827V7.76H105.275V8.864H109.475ZM114.166 8.888H113.398V11H110.566V2.6H114.61C115.386 2.6 116.062 2.728 116.638 2.984C117.214 3.24 117.658 3.608 117.97 4.088C118.282 4.568 118.438 5.128 118.438 5.768C118.438 6.368 118.302 6.892 118.03 7.34C117.758 7.788 117.366 8.144 116.854 8.408L118.618 11H115.594L114.166 8.888ZM115.582 5.768C115.582 5.456 115.486 5.216 115.294 5.048C115.102 4.872 114.814 4.784 114.43 4.784H113.398V6.752H114.43C114.814 6.752 115.102 6.668 115.294 6.5C115.486 6.324 115.582 6.08 115.582 5.768ZM65.6307 13.6V22H63.3027L60.1107 18.184V22H57.3507V13.6H59.6787L62.8707 17.416V13.6H65.6307ZM72.7193 20.536H69.5273L68.9633 22H66.0833L69.7553 13.6H72.5393L76.2113 22H73.2833L72.7193 20.536ZM71.9393 18.496L71.1233 16.384L70.3073 18.496H71.9393ZM78.0654 15.796H75.6054V13.6H83.3574V15.796H80.8974V22H78.0654V15.796ZM84.0929 13.6H86.9249V22H84.0929V13.6ZM92.6922 22.192C91.7882 22.192 90.9762 22.004 90.2562 21.628C89.5362 21.252 88.9722 20.732 88.5642 20.068C88.1562 19.396 87.9522 18.64 87.9522 17.8C87.9522 16.96 88.1562 16.208 88.5642 15.544C88.9722 14.872 89.5362 14.348 90.2562 13.972C90.9762 13.596 91.7882 13.408 92.6922 13.408C93.5962 13.408 94.4082 13.596 95.1282 13.972C95.8482 14.348 96.4122 14.872 96.8202 15.544C97.2282 16.208 97.4322 16.96 97.4322 17.8C97.4322 18.64 97.2282 19.396 96.8202 20.068C96.4122 20.732 95.8482 21.252 95.1282 21.628C94.4082 22.004 93.5962 22.192 92.6922 22.192ZM92.6922 19.9C93.0442 19.9 93.3602 19.816 93.6402 19.648C93.9282 19.472 94.1562 19.228 94.3242 18.916C94.4922 18.596 94.5762 18.224 94.5762 17.8C94.5762 17.376 94.4922 17.008 94.3242 16.696C94.1562 16.376 93.9282 16.132 93.6402 15.964C93.3602 15.788 93.0442 15.7 92.6922 15.7C92.3402 15.7 92.0202 15.788 91.7322 15.964C91.4522 16.132 91.2282 16.376 91.0602 16.696C90.8922 17.008 90.8082 17.376 90.8082 17.8C90.8082 18.224 90.8922 18.596 91.0602 18.916C91.2282 19.228 91.4522 19.472 91.7322 19.648C92.0202 19.816 92.3402 19.9 92.6922 19.9ZM106.74 13.6V22H104.412L101.22 18.184V22H98.4601V13.6H100.788L103.98 17.416V13.6H106.74ZM61.6947 33.192C60.8067 33.192 60.0067 33.008 59.2947 32.64C58.5827 32.264 58.0227 31.744 57.6147 31.08C57.2147 30.408 57.0147 29.648 57.0147 28.8C57.0147 27.952 57.2147 27.196 57.6147 26.532C58.0227 25.86 58.5827 25.34 59.2947 24.972C60.0067 24.596 60.8067 24.408 61.6947 24.408C62.5107 24.408 63.2387 24.552 63.8787 24.84C64.5187 25.128 65.0467 25.544 65.4627 26.088L63.6747 27.684C63.1547 27.028 62.5427 26.7 61.8387 26.7C61.2467 26.7 60.7707 26.892 60.4107 27.276C60.0507 27.652 59.8707 28.16 59.8707 28.8C59.8707 29.44 60.0507 29.952 60.4107 30.336C60.7707 30.712 61.2467 30.9 61.8387 30.9C62.5427 30.9 63.1547 30.572 63.6747 29.916L65.4627 31.512C65.0467 32.056 64.5187 32.472 63.8787 32.76C63.2387 33.048 62.5107 33.192 61.6947 33.192ZM70.5087 33.192C69.6047 33.192 68.7927 33.004 68.0727 32.628C67.3527 32.252 66.7887 31.732 66.3807 31.068C65.9727 30.396 65.7687 29.64 65.7687 28.8C65.7687 27.96 65.9727 27.208 66.3807 26.544C66.7887 25.872 67.3527 25.348 68.0727 24.972C68.7927 24.596 69.6047 24.408 70.5087 24.408C71.4127 24.408 72.2247 24.596 72.9447 24.972C73.6647 25.348 74.2287 25.872 74.6367 26.544C75.0447 27.208 75.2487 27.96 75.2487 28.8C75.2487 29.64 75.0447 30.396 74.6367 31.068C74.2287 31.732 73.6647 32.252 72.9447 32.628C72.2247 33.004 71.4127 33.192 70.5087 33.192ZM70.5087 30.9C70.8607 30.9 71.1767 30.816 71.4567 30.648C71.7447 30.472 71.9727 30.228 72.1407 29.916C72.3087 29.596 72.3927 29.224 72.3927 28.8C72.3927 28.376 72.3087 28.008 72.1407 27.696C71.9727 27.376 71.7447 27.132 71.4567 26.964C71.1767 26.788 70.8607 26.7 70.5087 26.7C70.1567 26.7 69.8367 26.788 69.5487 26.964C69.2687 27.132 69.0447 27.376 68.8767 27.696C68.7087 28.008 68.6247 28.376 68.6247 28.8C68.6247 29.224 68.7087 29.596 68.8767 29.916C69.0447 30.228 69.2687 30.472 69.5487 30.648C69.8367 30.816 70.1567 30.9 70.5087 30.9ZM84.5565 24.6V33H82.2285L79.0365 29.184V33H76.2765V24.6H78.6045L81.7965 28.416V24.6H84.5565ZM94.2011 24.6V33H91.8731L88.6811 29.184V33H85.9211V24.6H88.2491L91.4411 28.416V24.6H94.2011ZM102.55 30.864V33H95.5656V24.6H102.394V26.736H98.3496V27.72H101.902V29.76H98.3496V30.864H102.55ZM107.984 33.192C107.096 33.192 106.296 33.008 105.584 32.64C104.872 32.264 104.312 31.744 103.904 31.08C103.504 30.408 103.304 29.648 103.304 28.8C103.304 27.952 103.504 27.196 103.904 26.532C104.312 25.86 104.872 25.34 105.584 24.972C106.296 24.596 107.096 24.408 107.984 24.408C108.8 24.408 109.528 24.552 110.168 24.84C110.808 25.128 111.336 25.544 111.752 26.088L109.964 27.684C109.444 27.028 108.832 26.7 108.128 26.7C107.536 26.7 107.06 26.892 106.7 27.276C106.34 27.652 106.16 28.16 106.16 28.8C106.16 29.44 106.34 29.952 106.7 30.336C107.06 30.712 107.536 30.9 108.128 30.9C108.832 30.9 109.444 30.572 109.964 29.916L111.752 31.512C111.336 32.056 110.808 32.472 110.168 32.76C109.528 33.048 108.8 33.192 107.984 33.192ZM114.335 26.796H111.875V24.6H119.627V26.796H117.167V33H114.335V26.796Z" fill="url(#paint1_linear_connect)"/>
<defs>
<linearGradient id="paint0_linear_connect" x1="22.6667" y1="-0.00068726" x2="22.6667" y2="34" gradientUnits="userSpaceOnUse">
<stop stop-color="#C8A86B"/>
<stop offset="1" stop-color="#725E3A"/>
</linearGradient>
<linearGradient id="paint1_linear_connect" x1="88.6667" y1="0.999333" x2="88.6667" y2="34" gradientUnits="userSpaceOnUse">
<stop stop-color="#C8A86B"/>
<stop offset="1" stop-color="#725E3A"/>
</linearGradient>
</defs>
</svg>
