<svg width="24" height="20" viewBox="0 0 24 20" fill="none" xmlns="http://www.w3.org/2000/svg">
<path d="M6.73565 15.5763V11.7016H10.6498C10.6498 11.7016 2.82246 3.0749 0.213297 0.199234C0.0451643 0.0137699 -0.119354 -0.136299 0.120582 0.199443C1.1031 1.5743 2.68889 4.40677 2.68889 8.36837V18.6851C2.68889 19.3013 3.14195 19.8008 3.70098 19.8008H14.911C15.3864 19.8008 16.4701 19.7627 17.6302 19.3943L14.165 15.5763H6.73565ZM23.8795 19.8005C23.3844 19.1079 22.7368 18.0454 22.2153 16.6547C22.3806 16.0699 22.4745 15.402 22.4745 14.6382C22.4745 14.6382 22.6078 11.7618 20.0251 10.4414C21.3031 9.70776 22.2082 8.38733 22.2082 6.18597C22.2082 0.0529051 15.7649 0.199443 15.7649 0.199443H6.00227L9.75681 4.33755H15.7649C15.7649 4.33755 18.1078 4.308 18.1078 6.42154C18.1078 8.32856 15.7649 8.32856 15.7649 8.32856H13.3778C13.3778 8.32856 21.1777 16.925 23.7866 19.8008C23.9549 19.9861 24.1193 20.1364 23.8795 19.8005Z" fill="white"/>
<path d="M6.73565 15.5763V11.7016H10.6498C10.6498 11.7016 2.82246 3.0749 0.213297 0.199234C0.0451643 0.0137699 -0.119354 -0.136299 0.120582 0.199443C1.1031 1.5743 2.68889 4.40677 2.68889 8.36837V18.6851C2.68889 19.3013 3.14195 19.8008 3.70098 19.8008H14.911C15.3864 19.8008 16.4701 19.7627 17.6302 19.3943L14.165 15.5763H6.73565ZM23.8795 19.8005C23.3844 19.1079 22.7368 18.0454 22.2153 16.6547C22.3806 16.0699 22.4745 15.402 22.4745 14.6382C22.4745 14.6382 22.6078 11.7618 20.0251 10.4414C21.3031 9.70776 22.2082 8.38733 22.2082 6.18597C22.2082 0.0529051 15.7649 0.199443 15.7649 0.199443H6.00227L9.75681 4.33755H15.7649C15.7649 4.33755 18.1078 4.308 18.1078 6.42154C18.1078 8.32856 15.7649 8.32856 15.7649 8.32856H13.3778C13.3778 8.32856 21.1777 16.925 23.7866 19.8008C23.9549 19.9861 24.1193 20.1364 23.8795 19.8005Z" fill="url(#paint0_linear)"/>
<defs>
<linearGradient id="paint0_linear" x1="12" y1="0" x2="12" y2="20" gradientUnits="userSpaceOnUse">
<stop stop-color="#C8A86B"/>
<stop offset="1" stop-color="#725E3A"/>
</linearGradient>
</defs>
</svg>
