<svg width="49" height="37" viewBox="0 0 49 37" fill="none" xmlns="http://www.w3.org/2000/svg">
<path d="M13.752 28.5312V21.4339H21.7433C21.7433 21.4339 5.76252 5.63232 0.435481 0.36494C0.0922104 0.0252225 -0.243682 -0.249661 0.246189 0.365322C2.25217 2.88365 5.48981 8.07193 5.48981 15.3284V34.2256C5.48981 35.3544 6.41481 36.2692 7.55617 36.2692H30.4433C31.4139 36.2692 33.6264 36.1994 35.995 35.5246L28.9202 28.5312H13.752ZM48.754 36.2688C47.7432 35.0001 46.4209 33.0538 45.3562 30.5066C45.6938 29.4353 45.8855 28.2119 45.8855 26.8129C45.8855 26.8129 46.1576 21.5441 40.8845 19.1256C43.4939 17.7818 45.3418 15.3631 45.3418 11.3309C45.3418 0.0969064 32.1867 0.365322 32.1867 0.365322H12.2546L19.9202 7.94513H32.1867C32.1867 7.94513 36.9701 7.891 36.9701 11.7624C36.9701 15.2555 32.1867 15.2555 32.1867 15.2555H27.3131C27.3131 15.2555 43.2379 31.0018 48.5643 36.2692C48.908 36.6086 49.2435 36.8841 48.754 36.2688Z" fill="#2B2A29"/>
<path d="M13.752 28.5312V21.4339H21.7433C21.7433 21.4339 5.76252 5.63232 0.435481 0.36494C0.0922104 0.0252225 -0.243682 -0.249661 0.246189 0.365322C2.25217 2.88365 5.48981 8.07193 5.48981 15.3284V34.2256C5.48981 35.3544 6.41481 36.2692 7.55617 36.2692H30.4433C31.4139 36.2692 33.6264 36.1994 35.995 35.5246L28.9202 28.5312H13.752ZM48.754 36.2688C47.7432 35.0001 46.4209 33.0538 45.3562 30.5066C45.6938 29.4353 45.8855 28.2119 45.8855 26.8129C45.8855 26.8129 46.1576 21.5441 40.8845 19.1256C43.4939 17.7818 45.3418 15.3631 45.3418 11.3309C45.3418 0.0969064 32.1867 0.365322 32.1867 0.365322H12.2546L19.9202 7.94513H32.1867C32.1867 7.94513 36.9701 7.891 36.9701 11.7624C36.9701 15.2555 32.1867 15.2555 32.1867 15.2555H27.3131C27.3131 15.2555 43.2379 31.0018 48.5643 36.2692C48.908 36.6086 49.2435 36.8841 48.754 36.2688Z" fill="url(#paint0_linear)"/>
<defs>
<linearGradient id="paint0_linear" x1="24.5" y1="-0.000740506" x2="24.5" y2="36.6342" gradientUnits="userSpaceOnUse">
<stop stop-color="#C8A86B"/>
<stop offset="1" stop-color="#725E3A"/>
</linearGradient>
</defs>
</svg>
