<svg width="200" height="34" viewBox="0 0 120 34" fill="none" xmlns="http://www.w3.org/2000/svg">
<path d="M12.7229 26.4797V19.8927H20.1162C20.1162 19.8927 5.33131 5.22733 0.402894 0.338699C0.0853103 0.0234088 -0.225447 -0.231709 0.227767 0.339053C2.08364 2.6763 5.07901 7.49152 5.07901 14.2262V31.7646C5.07901 32.8122 5.93479 33.6613 6.99074 33.6613H28.1653C29.0632 33.6613 31.1101 33.5965 33.3015 32.9703L26.7561 26.4797H12.7229ZM45.1057 33.6609C44.1706 32.4835 42.9472 30.6771 41.9622 28.313C42.2745 27.3188 42.4519 26.1833 42.4519 24.8849C42.4519 24.8849 42.7036 19.995 37.8251 17.7503C40.2392 16.5032 41.9489 14.2585 41.9489 10.5161C41.9489 0.0899384 29.7782 0.339053 29.7782 0.339053H11.3376L18.4295 7.37383H29.7782C29.7782 7.37383 34.2036 7.3236 34.2036 10.9166C34.2036 14.1586 29.7782 14.1586 29.7782 14.1586H25.2692C25.2692 14.1586 40.0024 28.7726 44.9303 33.6613C45.2482 33.9763 45.5586 34.2319 45.1057 33.6609Z" fill="#2B2A29"/>
<path d="M12.7229 26.4797V19.8927H20.1162C20.1162 19.8927 5.33131 5.22733 0.402894 0.338699C0.0853103 0.0234088 -0.225447 -0.231709 0.227767 0.339053C2.08364 2.6763 5.07901 7.49152 5.07901 14.2262V31.7646C5.07901 32.8122 5.93479 33.6613 6.99074 33.6613H28.1653C29.0632 33.6613 31.1101 33.5965 33.3015 32.9703L26.7561 26.4797H12.7229ZM45.1057 33.6609C44.1706 32.4835 42.9472 30.6771 41.9622 28.313C42.2745 27.3188 42.4519 26.1833 42.4519 24.8849C42.4519 24.8849 42.7036 19.995 37.8251 17.7503C40.2392 16.5032 41.9489 14.2585 41.9489 10.5161C41.9489 0.0899384 29.7782 0.339053 29.7782 0.339053H11.3376L18.4295 7.37383H29.7782C29.7782 7.37383 34.2036 7.3236 34.2036 10.9166C34.2036 14.1586 29.7782 14.1586 29.7782 14.1586H25.2692C25.2692 14.1586 40.0024 28.7726 44.9303 33.6613C45.2482 33.9763 45.5586 34.2319 45.1057 33.6609Z" fill="url(#paint0_linear0)"/>
<path d="M64.0705 12.608C64.5665 12.792 64.9505 13.06 65.2225 13.412C65.4945 13.764 65.6305 14.188 65.6305 14.684C65.6305 15.42 65.3265 15.992 64.7185 16.4C64.1105 16.8 63.2305 17 62.0785 17H57.3505V8.6H61.8385C62.9585 8.6 63.8025 8.8 64.3705 9.2C64.9465 9.6 65.2345 10.132 65.2345 10.796C65.2345 11.188 65.1345 11.54 64.9345 11.852C64.7425 12.164 64.4545 12.416 64.0705 12.608ZM60.1345 10.58V11.828H61.4545C62.0705 11.828 62.3785 11.62 62.3785 11.204C62.3785 10.788 62.0705 10.58 61.4545 10.58H60.1345ZM61.8385 15.02C62.4625 15.02 62.7745 14.8 62.7745 14.36C62.7745 13.92 62.4625 13.7 61.8385 13.7H60.1345V15.02H61.8385ZM70.2318 14.888H69.4638V17H66.6318V8.6H70.6758C71.4518 8.6 72.1278 8.728 72.7038 8.984C73.2798 9.24 73.7238 9.608 74.0358 10.088C74.3478 10.568 74.5038 11.128 74.5038 11.768C74.5038 12.368 74.3678 12.892 74.0958 13.34C73.8238 13.788 73.4318 14.144 72.9198 14.408L74.6838 17H71.6598L70.2318 14.888ZM71.6478 11.768C71.6478 11.456 71.5518 11.216 71.3598 11.048C71.1678 10.872 70.8798 10.784 70.4958 10.784H69.4638V12.752H70.4958C70.8798 12.752 71.1678 12.668 71.3598 12.5C71.5518 12.324 71.6478 12.08 71.6478 11.768ZM82.5572 14.864V17H75.5732V8.6H82.4012V10.736H78.3572V11.72H81.9092V13.76H78.3572V14.864H82.5572ZM89.3714 15.536H86.1794L85.6154 17H82.7354L86.4074 8.6H89.1914L92.8634 17H89.9354L89.3714 15.536ZM88.5914 13.496L87.7754 11.384L86.9594 13.496H88.5914ZM96.7353 14.216L96.0993 14.924V17H93.3153V8.6H96.0993V11.648L98.8593 8.6H101.943L98.5833 12.296L102.111 17H98.8353L96.7353 14.216ZM109.475 14.864V17H102.491V8.6H109.319V10.736H105.275V11.72H108.827V13.76H105.275V14.864H109.475ZM114.165 14.888H113.397V17H110.565V8.6H114.609C115.385 8.6 116.061 8.728 116.637 8.984C117.213 9.24 117.657 9.608 117.969 10.088C118.281 10.568 118.437 11.128 118.437 11.768C118.437 12.368 118.301 12.892 118.029 13.34C117.757 13.788 117.365 14.144 116.853 14.408L118.617 17H115.593L114.165 14.888ZM115.581 11.768C115.581 11.456 115.485 11.216 115.293 11.048C115.101 10.872 114.813 10.784 114.429 10.784H113.397V12.752H114.429C114.813 12.752 115.101 12.668 115.293 12.5C115.485 12.324 115.581 12.08 115.581 11.768ZM65.6305 19.6V28H63.3025L60.1105 24.184V28H57.3505V19.6H59.6785L62.8705 23.416V19.6H65.6305ZM72.719 26.536H69.527L68.963 28H66.083L69.755 19.6H72.539L76.211 28H73.283L72.719 26.536ZM71.939 24.496L71.123 22.384L70.307 24.496H71.939ZM78.0651 21.796H75.6051V19.6H83.3571V21.796H80.8971V28H78.0651V21.796ZM84.0927 19.6H86.9247V28H84.0927V19.6ZM92.692 28.192C91.788 28.192 90.976 28.004 90.256 27.628C89.536 27.252 88.972 26.732 88.564 26.068C88.156 25.396 87.952 24.64 87.952 23.8C87.952 22.96 88.156 22.208 88.564 21.544C88.972 20.872 89.536 20.348 90.256 19.972C90.976 19.596 91.788 19.408 92.692 19.408C93.596 19.408 94.408 19.596 95.128 19.972C95.848 20.348 96.412 20.872 96.82 21.544C97.228 22.208 97.432 22.96 97.432 23.8C97.432 24.64 97.228 25.396 96.82 26.068C96.412 26.732 95.848 27.252 95.128 27.628C94.408 28.004 93.596 28.192 92.692 28.192ZM92.692 25.9C93.044 25.9 93.36 25.816 93.64 25.648C93.928 25.472 94.156 25.228 94.324 24.916C94.492 24.596 94.576 24.224 94.576 23.8C94.576 23.376 94.492 23.008 94.324 22.696C94.156 22.376 93.928 22.132 93.64 21.964C93.36 21.788 93.044 21.7 92.692 21.7C92.34 21.7 92.02 21.788 91.732 21.964C91.452 22.132 91.228 22.376 91.06 22.696C90.892 23.008 90.808 23.376 90.808 23.8C90.808 24.224 90.892 24.596 91.06 24.916C91.228 25.228 91.452 25.472 91.732 25.648C92.02 25.816 92.34 25.9 92.692 25.9ZM106.74 19.6V28H104.412L101.22 24.184V28H98.4599V19.6H100.788L103.98 23.416V19.6H106.74Z" fill="white"/>
<path d="M64.0705 12.608C64.5665 12.792 64.9505 13.06 65.2225 13.412C65.4945 13.764 65.6305 14.188 65.6305 14.684C65.6305 15.42 65.3265 15.992 64.7185 16.4C64.1105 16.8 63.2305 17 62.0785 17H57.3505V8.6H61.8385C62.9585 8.6 63.8025 8.8 64.3705 9.2C64.9465 9.6 65.2345 10.132 65.2345 10.796C65.2345 11.188 65.1345 11.54 64.9345 11.852C64.7425 12.164 64.4545 12.416 64.0705 12.608ZM60.1345 10.58V11.828H61.4545C62.0705 11.828 62.3785 11.62 62.3785 11.204C62.3785 10.788 62.0705 10.58 61.4545 10.58H60.1345ZM61.8385 15.02C62.4625 15.02 62.7745 14.8 62.7745 14.36C62.7745 13.92 62.4625 13.7 61.8385 13.7H60.1345V15.02H61.8385ZM70.2318 14.888H69.4638V17H66.6318V8.6H70.6758C71.4518 8.6 72.1278 8.728 72.7038 8.984C73.2798 9.24 73.7238 9.608 74.0358 10.088C74.3478 10.568 74.5038 11.128 74.5038 11.768C74.5038 12.368 74.3678 12.892 74.0958 13.34C73.8238 13.788 73.4318 14.144 72.9198 14.408L74.6838 17H71.6598L70.2318 14.888ZM71.6478 11.768C71.6478 11.456 71.5518 11.216 71.3598 11.048C71.1678 10.872 70.8798 10.784 70.4958 10.784H69.4638V12.752H70.4958C70.8798 12.752 71.1678 12.668 71.3598 12.5C71.5518 12.324 71.6478 12.08 71.6478 11.768ZM82.5572 14.864V17H75.5732V8.6H82.4012V10.736H78.3572V11.72H81.9092V13.76H78.3572V14.864H82.5572ZM89.3714 15.536H86.1794L85.6154 17H82.7354L86.4074 8.6H89.1914L92.8634 17H89.9354L89.3714 15.536ZM88.5914 13.496L87.7754 11.384L86.9594 13.496H88.5914ZM96.7353 14.216L96.0993 14.924V17H93.3153V8.6H96.0993V11.648L98.8593 8.6H101.943L98.5833 12.296L102.111 17H98.8353L96.7353 14.216ZM109.475 14.864V17H102.491V8.6H109.319V10.736H105.275V11.72H108.827V13.76H105.275V14.864H109.475ZM114.165 14.888H113.397V17H110.565V8.6H114.609C115.385 8.6 116.061 8.728 116.637 8.984C117.213 9.24 117.657 9.608 117.969 10.088C118.281 10.568 118.437 11.128 118.437 11.768C118.437 12.368 118.301 12.892 118.029 13.34C117.757 13.788 117.365 14.144 116.853 14.408L118.617 17H115.593L114.165 14.888ZM115.581 11.768C115.581 11.456 115.485 11.216 115.293 11.048C115.101 10.872 114.813 10.784 114.429 10.784H113.397V12.752H114.429C114.813 12.752 115.101 12.668 115.293 12.5C115.485 12.324 115.581 12.08 115.581 11.768ZM65.6305 19.6V28H63.3025L60.1105 24.184V28H57.3505V19.6H59.6785L62.8705 23.416V19.6H65.6305ZM72.719 26.536H69.527L68.963 28H66.083L69.755 19.6H72.539L76.211 28H73.283L72.719 26.536ZM71.939 24.496L71.123 22.384L70.307 24.496H71.939ZM78.0651 21.796H75.6051V19.6H83.3571V21.796H80.8971V28H78.0651V21.796ZM84.0927 19.6H86.9247V28H84.0927V19.6ZM92.692 28.192C91.788 28.192 90.976 28.004 90.256 27.628C89.536 27.252 88.972 26.732 88.564 26.068C88.156 25.396 87.952 24.64 87.952 23.8C87.952 22.96 88.156 22.208 88.564 21.544C88.972 20.872 89.536 20.348 90.256 19.972C90.976 19.596 91.788 19.408 92.692 19.408C93.596 19.408 94.408 19.596 95.128 19.972C95.848 20.348 96.412 20.872 96.82 21.544C97.228 22.208 97.432 22.96 97.432 23.8C97.432 24.64 97.228 25.396 96.82 26.068C96.412 26.732 95.848 27.252 95.128 27.628C94.408 28.004 93.596 28.192 92.692 28.192ZM92.692 25.9C93.044 25.9 93.36 25.816 93.64 25.648C93.928 25.472 94.156 25.228 94.324 24.916C94.492 24.596 94.576 24.224 94.576 23.8C94.576 23.376 94.492 23.008 94.324 22.696C94.156 22.376 93.928 22.132 93.64 21.964C93.36 21.788 93.044 21.7 92.692 21.7C92.34 21.7 92.02 21.788 91.732 21.964C91.452 22.132 91.228 22.376 91.06 22.696C90.892 23.008 90.808 23.376 90.808 23.8C90.808 24.224 90.892 24.596 91.06 24.916C91.228 25.228 91.452 25.472 91.732 25.648C92.02 25.816 92.34 25.9 92.692 25.9ZM106.74 19.6V28H104.412L101.22 24.184V28H98.4599V19.6H100.788L103.98 23.416V19.6H106.74Z" fill="url(#paint0_linear1)"/>
<defs>
<linearGradient id="paint0_linear0" x1="22.6667" y1="-0.00068726" x2="22.6667" y2="34" gradientUnits="userSpaceOnUse">
<stop stop-color="#C8A86B"/>
<stop offset="1" stop-color="#725E3A"/>
</linearGradient>
<linearGradient id="paint0_linear1" x1="88.1665" y1="6.99956" x2="88.1665" y2="29" gradientUnits="userSpaceOnUse">
<stop stop-color="#C8A86B"/>
<stop offset="1" stop-color="#725E3A"/>
</linearGradient>
</defs>
</svg>
