<svg width="22" height="22" viewBox="0 0 22 22" fill="none" xmlns="http://www.w3.org/2000/svg">
<path d="M18.8495 3.27099C16.6981 1.10985 13.7431 -0.0736313 10.6844 0.00355231C4.59301 0.183647 -0.176436 5.20058 0.00500996 11.2466C0.0309309 12.5073 0.29014 13.7422 0.756716 14.9C1.14553 15.8776 1.66395 16.7781 2.31197 17.6014L1.40474 19.7368C1.04185 20.5601 1.43066 21.5121 2.26013 21.8722C2.54526 22.0009 2.88223 22.0266 3.19328 21.9752L7.39247 21.2548C8.89588 21.7693 10.4771 21.9494 12.0582 21.7951C17.4757 21.2548 21.7008 16.8553 21.9859 11.4525C22.1415 8.39084 21.0009 5.43213 18.8495 3.27099Z" fill="url(#paint0_linear)"/>
<defs>
<linearGradient id="paint0_linear" x1="11" y1="0" x2="11" y2="22" gradientUnits="userSpaceOnUse">
<stop stop-color="#C8A86B"/>
<stop offset="1" stop-color="#725E3A"/>
</linearGradient>
</defs>
</svg>
