<svg width="44" height="44" viewBox="0 0 44 44" fill="none" xmlns="http://www.w3.org/2000/svg">
<rect width="44" height="44" rx="22" fill="url(#paint0_linear)"/>
<path d="M24.116 16.0234L14.2121 25.928C14.1623 25.978 14.1263 26.0411 14.1092 26.1089L13.0114 30.515C12.9786 30.6476 13.0176 30.7887 13.1144 30.8855C13.1876 30.9587 13.2874 30.9993 13.3895 30.9993C13.4208 30.9993 13.4527 30.9954 13.4839 30.9876L17.89 29.8897C17.9587 29.8726 18.021 29.8367 18.0709 29.7869L27.9756 19.883L24.116 16.0234Z" fill="black"/>
<path d="M30.4291 14.6724L29.3267 13.5699C28.5899 12.8331 27.3057 12.8338 26.5697 13.5699L25.2192 14.9204L29.0787 18.7798L30.4291 17.4294C30.7972 17.0615 30.9999 16.5718 30.9999 16.051C30.9999 15.5301 30.7972 15.0404 30.4291 14.6724Z" fill="black"/>
<defs>
<linearGradient id="paint0_linear" x1="22" y1="0" x2="22" y2="44" gradientUnits="userSpaceOnUse">
<stop stop-color="#C8A86B"/>
<stop offset="1" stop-color="#725E3A"/>
</linearGradient>
</defs>
</svg>
