<svg width="12" height="14" viewBox="0 0 12 14" fill="none" xmlns="http://www.w3.org/2000/svg">
<path d="M9.9375 5.25H9.5V3.5C9.5 1.5697 7.9303 0 6 0C4.0697 0 2.5 1.5697 2.5 3.5V5.25H2.0625C1.33917 5.25 0.75 5.83853 0.75 6.5625V12.6875C0.75 13.4115 1.33917 14 2.0625 14H9.9375C10.6608 14 11.25 13.4115 11.25 12.6875V6.5625C11.25 5.83853 10.6608 5.25 9.9375 5.25ZM3.6667 3.5C3.6667 2.21313 4.71313 1.1667 6 1.1667C7.28687 1.1667 8.3333 2.21313 8.3333 3.5V5.25H3.6667V3.5Z" fill="#2E3E50"/>
<path d="M9.9375 5.25H9.5V3.5C9.5 1.5697 7.9303 0 6 0C4.0697 0 2.5 1.5697 2.5 3.5V5.25H2.0625C1.33917 5.25 0.75 5.83853 0.75 6.5625V12.6875C0.75 13.4115 1.33917 14 2.0625 14H9.9375C10.6608 14 11.25 13.4115 11.25 12.6875V6.5625C11.25 5.83853 10.6608 5.25 9.9375 5.25ZM3.6667 3.5C3.6667 2.21313 4.71313 1.1667 6 1.1667C7.28687 1.1667 8.3333 2.21313 8.3333 3.5V5.25H3.6667V3.5Z" fill="url(#paint0_linear)"/>
<defs>
<linearGradient id="paint0_linear" x1="6" y1="-0.00028299" x2="6" y2="14" gradientUnits="userSpaceOnUse">
<stop stop-color="#C8A86B"/>
<stop offset="1" stop-color="#725E3A"/>
</linearGradient>
</defs>
</svg>
