<svg width="34" height="34" viewBox="0 0 34 34" fill="none" xmlns="http://www.w3.org/2000/svg">
<rect width="34" height="34" rx="17" fill="url(#paint0_linear)"/>
<path d="M13.6103 19.8455V17.6H16.1308C16.1308 17.6 11.0904 12.6004 9.4103 10.9338C9.30203 10.8263 9.19609 10.7394 9.3506 10.9339C9.98328 11.7307 11.0044 13.3723 11.0044 15.6682V21.6472C11.0044 22.0044 11.2962 22.2938 11.6562 22.2938H18.8747C19.1809 22.2938 19.8787 22.2717 20.6257 22.0582L18.3943 19.8455H13.6103ZM24.6499 22.2937C24.3311 21.8923 23.914 21.2765 23.5782 20.4705C23.6847 20.1316 23.7452 19.7445 23.7452 19.3019C23.7452 19.3019 23.831 17.6348 22.1679 16.8696C22.9909 16.4444 23.5737 15.6792 23.5737 14.4034C23.5737 10.849 19.4246 10.9339 19.4246 10.9339H13.138L15.5557 13.3322H19.4246C19.4246 13.3322 20.9333 13.315 20.9333 14.5399C20.9333 15.6451 19.4246 15.6451 19.4246 15.6451H17.8875C17.8875 15.6451 22.9101 20.6272 24.5901 22.2938C24.6985 22.4012 24.8043 22.4883 24.6499 22.2937Z" fill="black"/>
<defs>
<linearGradient id="paint0_linear" x1="17" y1="0" x2="17" y2="34" gradientUnits="userSpaceOnUse">
<stop stop-color="#C8A86B"/>
<stop offset="1" stop-color="#725E3A"/>
</linearGradient>
</defs>
</svg>
