<svg width="7" height="10" viewBox="0 0 7 10" fill="none" xmlns="http://www.w3.org/2000/svg">
<path d="M6.43404 6.36542C6.75177 5.84479 6.96028 5.18664 7 4.52849C7 4.50884 7 4.48919 7 4.45972V4.33202C6.99007 3.97839 6.90071 3.61493 6.73191 3.2613C6.40425 2.61297 5.85816 2.24951 5.33191 1.89587C4.93475 1.64047 4.55745 1.38507 4.28936 1.03143L4.24965 0.972495C4.09078 0.766208 3.91206 0.530452 3.88227 0.333988C3.86241 0.137525 3.69362 0 3.50496 0H3.48511H3.47518C3.26667 0.00982318 3.1078 0.176817 3.1078 0.383104V7.23969C2.79007 7.04322 2.38298 6.92534 1.9461 6.92534C0.873759 6.92534 0 7.61297 0 8.46758C0 9.31238 0.873759 10 1.9461 10C3.01844 10 3.8922 9.31238 3.8922 8.46758V3.97839C4.46808 4.20432 5.43121 4.76424 5.68936 6.08055C5.63972 6.14931 5.6 6.2279 5.54043 6.28684C5.40142 6.44401 5.41135 6.68959 5.58014 6.82711C5.73901 6.97446 5.98723 6.95481 6.12624 6.79764C6.22553 6.67976 6.32482 6.54224 6.41418 6.39489C6.42411 6.38507 6.42411 6.37525 6.43404 6.36542Z" fill="#C8A86B"/>
</svg>
