<svg width="28" height="28" viewBox="0 0 28 28" fill="none" xmlns="http://www.w3.org/2000/svg">
<rect opacity="0.6" x="0.5" y="0.5" width="27" height="27" rx="13.5" fill="#292929" stroke="#292929"/>
<path d="M12.886 15.984C12.886 15.516 12.99 15.1303 13.198 14.827C13.4147 14.515 13.7267 14.177 14.134 13.813C14.446 13.5357 14.6757 13.2973 14.823 13.098C14.979 12.89 15.057 12.656 15.057 12.396C15.057 12.032 14.9097 11.7373 14.615 11.512C14.3203 11.2867 13.926 11.174 13.432 11.174C12.496 11.174 11.7897 11.5077 11.313 12.175L10.052 11.356C10.4247 10.8447 10.9057 10.4547 11.495 10.186C12.0843 9.90867 12.7777 9.77 13.575 9.77C14.5457 9.77 15.317 9.98233 15.889 10.407C16.4697 10.823 16.76 11.3993 16.76 12.136C16.76 12.4913 16.6993 12.8033 16.578 13.072C16.4653 13.3407 16.3267 13.5703 16.162 13.761C15.9973 13.943 15.7807 14.1553 15.512 14.398C15.1827 14.6927 14.9357 14.9527 14.771 15.178C14.615 15.4033 14.537 15.672 14.537 15.984H12.886ZM13.718 19.091C13.4147 19.091 13.1633 18.9957 12.964 18.805C12.7733 18.6057 12.678 18.363 12.678 18.077C12.678 17.791 12.7733 17.5527 12.964 17.362C13.1633 17.1713 13.4147 17.076 13.718 17.076C14.0127 17.076 14.2553 17.1713 14.446 17.362C14.6453 17.5527 14.745 17.791 14.745 18.077C14.745 18.363 14.6453 18.6057 14.446 18.805C14.2553 18.9957 14.0127 19.091 13.718 19.091Z" fill="white"/>
</svg>
