<svg width="22" height="22" viewBox="0 0 22 22" fill="none" xmlns="http://www.w3.org/2000/svg">
<path d="M11 0C4.93167 0 0 4.93167 0 11C0 17.0683 4.93167 22 11 22C17.0683 22 22 17.0683 22 11C22 4.93167 17.0683 0 11 0ZM4.58333 8.31417C4.58333 7.29667 5.40833 6.48083 6.41667 6.48083C7.425 6.48083 8.25 7.29667 8.25 8.31417C8.25 9.3225 7.425 10.1475 6.41667 10.1475C5.40833 10.1475 4.58333 9.3225 4.58333 8.31417ZM16.2314 17.1811C16.0527 17.3598 15.818 17.4497 15.5833 17.4497C15.3487 17.4497 15.114 17.3598 14.9352 17.1811C13.8847 16.1297 12.4868 15.5513 11 15.5513C9.51317 15.5513 8.11617 16.1297 7.06475 17.1811C6.70633 17.5395 6.127 17.5395 5.76858 17.1811C5.41017 16.8236 5.41017 16.2433 5.76858 15.8849C7.16558 14.4879 9.02367 13.7179 11 13.7179C12.9763 13.7179 14.8344 14.4879 16.2314 15.8849C16.5898 16.2424 16.5898 16.8236 16.2314 17.1811ZM15.5833 10.1475C14.575 10.1475 13.75 9.3225 13.75 8.31417C13.75 7.29667 14.575 6.48083 15.5833 6.48083C16.5917 6.48083 17.4167 7.29667 17.4167 8.31417C17.4167 9.3225 16.5917 10.1475 15.5833 10.1475Z" fill="#CD4242"/>
</svg>
