<svg width="24" height="23" viewBox="0 0 24 23" fill="none" xmlns="http://www.w3.org/2000/svg">
<path d="M11.3382 0.411109C11.4625 0.15937 11.7188 1.11545e-08 11.9996 1.11545e-08C12.2804 -4.86811e-05 12.5368 0.159321 12.661 0.41106L15.5379 6.23937C15.8085 6.78741 16.3313 7.16735 16.9362 7.25519L23.3684 8.19023C23.6462 8.23064 23.877 8.42522 23.9639 8.69225C24.0505 8.95923 23.9783 9.25235 23.7772 9.44834L19.1232 13.9855C18.6855 14.4122 18.4858 15.0269 18.5891 15.6292L19.6872 22.0345C19.7346 22.3112 19.6209 22.5909 19.3938 22.7557C19.1667 22.9208 18.8655 22.9425 18.6171 22.8119L12.8638 19.7878C12.3228 19.5034 11.6765 19.5034 11.1355 19.7879L5.38272 22.8118C5.13419 22.9425 4.83308 22.9206 4.60598 22.7556C4.37883 22.5906 4.26514 22.3109 4.31256 22.0343L5.4112 15.6295C5.51458 15.027 5.31484 14.4122 4.8771 13.9854L0.222757 9.44839C0.0217556 9.2524 -0.0506498 8.95927 0.0361197 8.6923C0.122889 8.42531 0.35369 8.23074 0.631528 8.19028L7.06357 7.25529C7.66843 7.16735 8.19133 6.78745 8.46187 6.23933L11.3382 0.411109Z" fill="url(#paint0_linear)"/>
<defs>
<linearGradient id="paint0_linear" x1="12" y1="0" x2="12" y2="22.8966" gradientUnits="userSpaceOnUse">
<stop stop-color="#C8A86B"/>
<stop offset="1" stop-color="#725E3A"/>
</linearGradient>
</defs>
</svg>
