<svg width="22" height="22" viewBox="0 0 22 22" fill="none" xmlns="http://www.w3.org/2000/svg">
<path d="M10.3934 0.39501C10.5073 0.153129 10.7423 1.07177e-08 10.9997 1.07177e-08C11.257 -4.67747e-05 11.4921 0.153082 11.606 0.394963L14.2431 5.99504C14.4911 6.52161 14.9704 6.88668 15.5249 6.97108L21.4211 7.8695C21.6758 7.90833 21.8873 8.09529 21.9669 8.35186C22.0464 8.60838 21.9801 8.89003 21.7958 9.07834L17.5296 13.4379C17.1284 13.8478 16.9454 14.4384 17.04 15.0171L18.0467 21.1716C18.0901 21.4375 17.9859 21.7062 17.7776 21.8646C17.5695 22.0233 17.2935 22.0441 17.0657 21.9186L11.7918 19.0129C11.2959 18.7397 10.7035 18.7397 10.2075 19.013L4.93417 21.9185C4.70636 22.044 4.43033 22.023 4.22216 21.8645C4.01394 21.706 3.90972 21.4372 3.95319 21.1714L4.96028 15.0174C5.05504 14.4385 4.87195 13.8478 4.47068 13.4378L0.204194 9.07839C0.0199426 8.89008 -0.0464291 8.60843 0.0331098 8.35191C0.112649 8.09538 0.324217 7.90843 0.578902 7.86955L6.47496 6.97117C7.02941 6.88668 7.50874 6.52166 7.75673 5.99499L10.3934 0.39501Z" fill="url(#paint0_linear)"/>
<path d="M10.3934 0.39501C10.5073 0.153129 10.7423 1.07177e-08 10.9997 1.07177e-08C11.257 -4.67747e-05 11.4921 0.153082 11.606 0.394963L14.2431 5.99504C14.4911 6.52161 14.9704 6.88668 15.5249 6.97108L21.4211 7.8695C21.6758 7.90833 21.8873 8.09529 21.9669 8.35186C22.0464 8.60838 21.9801 8.89003 21.7958 9.07834L17.5296 13.4379C17.1284 13.8478 16.9454 14.4384 17.04 15.0171L18.0467 21.1716C18.0901 21.4375 17.9859 21.7062 17.7776 21.8646C17.5695 22.0233 17.2935 22.0441 17.0657 21.9186L11.7918 19.0129C11.2959 18.7397 10.7035 18.7397 10.2075 19.013L4.93417 21.9185C4.70636 22.044 4.43033 22.023 4.22216 21.8645C4.01394 21.706 3.90972 21.4372 3.95319 21.1714L4.96028 15.0174C5.05504 14.4385 4.87195 13.8478 4.47068 13.4378L0.204194 9.07839C0.0199426 8.89008 -0.0464291 8.60843 0.0331098 8.35191C0.112649 8.09538 0.324217 7.90843 0.578902 7.86955L6.47496 6.97117C7.02941 6.88668 7.50874 6.52166 7.75673 5.99499L10.3934 0.39501Z" fill="#24242C"/>
<defs>
<linearGradient id="paint0_linear" x1="11" y1="0" x2="11" y2="22" gradientUnits="userSpaceOnUse">
<stop stop-color="#C8A86B"/>
<stop offset="1" stop-color="#725E3A"/>
</linearGradient>
</defs>
</svg>
