<svg width="22" height="18" viewBox="0 0 22 18" fill="none" xmlns="http://www.w3.org/2000/svg">
<path d="M17.19 17.0039H13.6342H12.6767H12.47V12.2343H14.0298C14.4254 12.2343 14.6592 11.7848 14.4254 11.4612L11.3911 7.26254C11.1978 6.99282 10.7977 6.99282 10.6044 7.26254L7.57009 11.4612C7.33633 11.7848 7.56559 12.2343 7.96567 12.2343H9.52554V17.0039H9.31876H8.36126H4.23907C1.87904 16.8735 0 14.6663 0 12.2748C0 10.625 0.894565 9.18653 2.22068 8.40884C2.09931 8.08069 2.03637 7.73005 2.03637 7.36144C2.03637 5.6757 3.39845 4.31363 5.08418 4.31363C5.4483 4.31363 5.79894 4.37656 6.12709 4.49793C7.10257 2.43009 9.20638 0.996094 11.6518 0.996094C14.8165 1.00059 17.4238 3.42356 17.7205 6.51183C20.1524 6.92989 22 9.18204 22 11.7309C22 14.455 19.8782 16.8151 17.19 17.0039Z" fill="black"/>
<path d="M17.19 17.0039H13.6342H12.6767H12.47V12.2343H14.0298C14.4254 12.2343 14.6592 11.7848 14.4254 11.4612L11.3911 7.26254C11.1978 6.99282 10.7977 6.99282 10.6044 7.26254L7.57009 11.4612C7.33633 11.7848 7.56559 12.2343 7.96567 12.2343H9.52554V17.0039H9.31876H8.36126H4.23907C1.87904 16.8735 0 14.6663 0 12.2748C0 10.625 0.894565 9.18653 2.22068 8.40884C2.09931 8.08069 2.03637 7.73005 2.03637 7.36144C2.03637 5.6757 3.39845 4.31363 5.08418 4.31363C5.4483 4.31363 5.79894 4.37656 6.12709 4.49793C7.10257 2.43009 9.20638 0.996094 11.6518 0.996094C14.8165 1.00059 17.4238 3.42356 17.7205 6.51183C20.1524 6.92989 22 9.18204 22 11.7309C22 14.455 19.8782 16.8151 17.19 17.0039Z" fill="url(#paint0_linear)"/>
<defs>
<linearGradient id="paint0_linear" x1="11" y1="0.99577" x2="11" y2="17.0039" gradientUnits="userSpaceOnUse">
<stop stop-color="#C8A86B"/>
<stop offset="1" stop-color="#725E3A"/>
</linearGradient>
</defs>
</svg>
