<svg width="20" height="20" viewBox="0 0 20 20" fill="none" xmlns="http://www.w3.org/2000/svg">
<circle cx="10" cy="10" r="10" fill="#7551E9"/>
<path d="M7.36782 12.7881V10.8508H9.32489C9.32489 10.8508 5.41123 6.53745 4.10665 5.09962C4.02258 5.00688 3.94032 4.93185 4.06029 5.09972C4.55155 5.78715 5.34444 7.20339 5.34444 9.18419V14.3425C5.34444 14.6507 5.57097 14.9004 5.85049 14.9004H11.4555C11.6932 14.9004 12.235 14.8813 12.8151 14.6971L11.0825 12.7881H7.36782ZM15.9398 14.9003C15.6922 14.554 15.3684 14.0227 15.1076 13.3274C15.1903 13.0349 15.2373 12.701 15.2373 12.3191C15.2373 12.3191 15.3039 10.8809 14.0125 10.2207C14.6516 9.85388 15.1041 9.19367 15.1041 8.09298C15.1041 5.02645 11.8825 5.09972 11.8825 5.09972H7.00113L8.87841 7.16877H11.8825C11.8825 7.16877 13.0539 7.154 13.0539 8.21077C13.0539 9.16428 11.8825 9.16428 11.8825 9.16428H10.6889C10.6889 9.16428 14.5889 13.4625 15.8933 14.9004C15.9775 14.993 16.0596 15.0682 15.9398 14.9003Z" fill="white"/>
</svg>
