<svg width="129" height="110" viewBox="0 0 129 110" fill="none" xmlns="http://www.w3.org/2000/svg">
<path d="M48.0761 43.5114V32.7093H60.2875C60.2875 32.7093 35.8676 8.65919 27.7275 0.642202C27.2029 0.12515 26.6897 -0.293224 27.4382 0.642784C30.5035 4.4757 35.4509 12.3723 35.4509 23.4167V52.1784C35.4509 53.8964 36.8644 55.2887 38.6085 55.2887H73.5818C75.065 55.2887 78.4458 55.1825 82.0652 54.1555L71.2544 43.5114H48.0761ZM101.562 55.2882C100.017 53.3572 97.9968 50.3949 96.3699 46.518C96.8857 44.8875 97.1787 43.0255 97.1787 40.8962C97.1787 40.8962 97.5945 32.877 89.5368 29.196C93.5241 27.1508 96.3479 23.4696 96.3479 17.3325C96.3479 0.234254 76.2459 0.642784 76.2459 0.642784H45.7881L57.5016 12.1793H76.2459C76.2459 12.1793 83.5552 12.0969 83.5552 17.9892C83.5552 23.3057 76.2459 23.3057 76.2459 23.3057H68.7986C68.7986 23.3057 93.1329 47.2716 101.272 55.2887C101.797 55.8054 102.31 56.2246 101.562 55.2882Z" fill="#2B2A29"/>
<path d="M48.0761 43.5114V32.7093H60.2875C60.2875 32.7093 35.8676 8.65919 27.7275 0.642202C27.2029 0.12515 26.6897 -0.293224 27.4382 0.642784C30.5035 4.4757 35.4509 12.3723 35.4509 23.4167V52.1784C35.4509 53.8964 36.8644 55.2887 38.6085 55.2887H73.5818C75.065 55.2887 78.4458 55.1825 82.0652 54.1555L71.2544 43.5114H48.0761ZM101.562 55.2882C100.017 53.3572 97.9968 50.3949 96.3699 46.518C96.8857 44.8875 97.1787 43.0255 97.1787 40.8962C97.1787 40.8962 97.5945 32.877 89.5368 29.196C93.5241 27.1508 96.3479 23.4696 96.3479 17.3325C96.3479 0.234254 76.2459 0.642784 76.2459 0.642784H45.7881L57.5016 12.1793H76.2459C76.2459 12.1793 83.5552 12.0969 83.5552 17.9892C83.5552 23.3057 76.2459 23.3057 76.2459 23.3057H68.7986C68.7986 23.3057 93.1329 47.2716 101.272 55.2887C101.797 55.8054 102.31 56.2246 101.562 55.2882Z" fill="url(#paint0_linear)"/>
<path d="M15.2393 92.4577H19.7318L26.8808 101.503V92.4577H31.6467V109.57H27.4272L20.0052 100.183V109.57H15.2393V92.4577ZM120.587 77.3383C122.311 77.3383 123.304 76.5148 123.304 75.2021V75.1508C123.304 73.7354 122.259 73.015 120.561 73.015H117.242V77.3383H120.587ZM112.173 68.6919H120.822C123.617 68.6919 125.551 69.4124 126.779 70.6476C127.851 71.6772 128.399 73.0666 128.399 74.8422V74.8935C128.399 77.6472 126.91 79.4741 124.637 80.4263L129 86.7052H123.147L119.463 81.2495H117.242V86.7052H112.173V68.6919ZM94.7452 68.6919H109.455V72.9378H99.7616V75.6652H108.541V79.603H99.7616V82.4594H109.586V86.7052H94.7452V68.6919ZM75.671 68.6919H80.7397V76.0003L87.0369 68.6919H93.0462L86.1222 76.4378L93.2813 86.7052H87.1936L82.5944 80.0146L80.7397 82.0475V86.7052H75.671V68.6919ZM65.6626 79.603L63.6247 74.4819L61.5604 79.603H65.6626ZM61.2205 68.563H66.1066L73.8931 86.7052H68.4585L67.1259 83.4884H60.0712L58.7644 86.7052H53.4344L61.2205 68.563ZM37.4694 68.6919H52.1797V72.9378H42.4862V75.6652H51.2653V79.603H42.4862V82.4594H52.3105V86.7052H37.4694V68.6919ZM27.0961 77.3383C28.8201 77.3383 29.8132 76.5148 29.8132 75.2021V75.1508C29.8132 73.7354 28.7683 73.015 27.0697 73.015H23.7514V77.3383H27.0961ZM18.6827 68.6919H27.3313C30.1266 68.6919 32.0599 69.4124 33.2884 70.6476C34.3594 71.6772 34.9082 73.0666 34.9082 74.8422V74.8935C34.9082 77.6472 33.4189 79.4741 31.1456 80.4263L35.5091 86.7052H29.6565L25.9723 81.2495H23.7514V86.7052H18.6827V68.6919ZM8.85699 82.6908C10.3988 82.6908 11.2871 82.0994 11.2871 81.0439V80.9923C11.2871 80.0146 10.5035 79.3713 8.8052 79.3713H4.93788V82.6908H8.85699ZM8.12576 75.8712C9.66744 75.8712 10.5298 75.3568 10.5298 74.3016V74.2503C10.5298 73.2722 9.74562 72.7062 8.22989 72.7062H4.93788V75.8712H8.12576ZM0 68.6919H9.37961C11.6792 68.6919 13.2994 69.2579 14.3703 70.3131C15.1021 71.0339 15.5464 71.986 15.5464 73.221V73.2722C15.5464 75.3568 14.3445 76.5917 12.7244 77.2869C14.9456 78.0073 16.3568 79.2428 16.3568 81.6875V81.7388C16.3568 84.8266 13.7958 86.7052 9.43244 86.7052H0V68.6919ZM97.3534 92.4577H101.846L108.994 101.503V92.4577H113.761V109.57H109.541L102.119 100.183V109.57H97.3534V92.4577ZM89.9308 101.063V101.014C89.9308 98.545 88.1187 96.3935 85.4628 96.3935C82.8316 96.3935 81.0692 98.4961 81.0692 100.965V101.014C81.0692 103.483 82.8815 105.634 85.5124 105.634C88.1689 105.634 89.9308 103.532 89.9308 101.063ZM76.1296 101.063V101.014C76.1296 96.1003 80.1508 92.1149 85.5124 92.1149C90.874 92.1149 94.8455 96.0512 94.8455 100.965V101.014C94.8455 105.928 90.8245 109.913 85.4628 109.913C80.1013 109.913 76.1296 105.977 76.1296 101.063ZM68.7077 109.57H73.5482V92.4577H68.7077V109.57ZM56.4698 96.6138H51.2573V92.4577H66.4978V96.6138H61.2858V109.57H56.4698V96.6138ZM44.9519 102.823L43.0158 97.9585L41.0547 102.823H44.9519ZM40.7318 92.3355H45.3738L52.7706 109.57H47.6075L46.3418 106.514H39.6402L38.3991 109.57H33.3349L40.7318 92.3355Z" fill="#2B2A29"/>
<path d="M15.2393 92.4577H19.7318L26.8808 101.503V92.4577H31.6467V109.57H27.4272L20.0052 100.183V109.57H15.2393V92.4577ZM120.587 77.3383C122.311 77.3383 123.304 76.5148 123.304 75.2021V75.1508C123.304 73.7354 122.259 73.015 120.561 73.015H117.242V77.3383H120.587ZM112.173 68.6919H120.822C123.617 68.6919 125.551 69.4124 126.779 70.6476C127.851 71.6772 128.399 73.0666 128.399 74.8422V74.8935C128.399 77.6472 126.91 79.4741 124.637 80.4263L129 86.7052H123.147L119.463 81.2495H117.242V86.7052H112.173V68.6919ZM94.7452 68.6919H109.455V72.9378H99.7616V75.6652H108.541V79.603H99.7616V82.4594H109.586V86.7052H94.7452V68.6919ZM75.671 68.6919H80.7397V76.0003L87.0369 68.6919H93.0462L86.1222 76.4378L93.2813 86.7052H87.1936L82.5944 80.0146L80.7397 82.0475V86.7052H75.671V68.6919ZM65.6626 79.603L63.6247 74.4819L61.5604 79.603H65.6626ZM61.2205 68.563H66.1066L73.8931 86.7052H68.4585L67.1259 83.4884H60.0712L58.7644 86.7052H53.4344L61.2205 68.563ZM37.4694 68.6919H52.1797V72.9378H42.4862V75.6652H51.2653V79.603H42.4862V82.4594H52.3105V86.7052H37.4694V68.6919ZM27.0961 77.3383C28.8201 77.3383 29.8132 76.5148 29.8132 75.2021V75.1508C29.8132 73.7354 28.7683 73.015 27.0697 73.015H23.7514V77.3383H27.0961ZM18.6827 68.6919H27.3313C30.1266 68.6919 32.0599 69.4124 33.2884 70.6476C34.3594 71.6772 34.9082 73.0666 34.9082 74.8422V74.8935C34.9082 77.6472 33.4189 79.4741 31.1456 80.4263L35.5091 86.7052H29.6565L25.9723 81.2495H23.7514V86.7052H18.6827V68.6919ZM8.85699 82.6908C10.3988 82.6908 11.2871 82.0994 11.2871 81.0439V80.9923C11.2871 80.0146 10.5035 79.3713 8.8052 79.3713H4.93788V82.6908H8.85699ZM8.12576 75.8712C9.66744 75.8712 10.5298 75.3568 10.5298 74.3016V74.2503C10.5298 73.2722 9.74562 72.7062 8.22989 72.7062H4.93788V75.8712H8.12576ZM0 68.6919H9.37961C11.6792 68.6919 13.2994 69.2579 14.3703 70.3131C15.1021 71.0339 15.5464 71.986 15.5464 73.221V73.2722C15.5464 75.3568 14.3445 76.5917 12.7244 77.2869C14.9456 78.0073 16.3568 79.2428 16.3568 81.6875V81.7388C16.3568 84.8266 13.7958 86.7052 9.43244 86.7052H0V68.6919ZM97.3534 92.4577H101.846L108.994 101.503V92.4577H113.761V109.57H109.541L102.119 100.183V109.57H97.3534V92.4577ZM89.9308 101.063V101.014C89.9308 98.545 88.1187 96.3935 85.4628 96.3935C82.8316 96.3935 81.0692 98.4961 81.0692 100.965V101.014C81.0692 103.483 82.8815 105.634 85.5124 105.634C88.1689 105.634 89.9308 103.532 89.9308 101.063ZM76.1296 101.063V101.014C76.1296 96.1003 80.1508 92.1149 85.5124 92.1149C90.874 92.1149 94.8455 96.0512 94.8455 100.965V101.014C94.8455 105.928 90.8245 109.913 85.4628 109.913C80.1013 109.913 76.1296 105.977 76.1296 101.063ZM68.7077 109.57H73.5482V92.4577H68.7077V109.57ZM56.4698 96.6138H51.2573V92.4577H66.4978V96.6138H61.2858V109.57H56.4698V96.6138ZM44.9519 102.823L43.0158 97.9585L41.0547 102.823H44.9519ZM40.7318 92.3355H45.3738L52.7706 109.57H47.6075L46.3418 106.514H39.6402L38.3991 109.57H33.3349L40.7318 92.3355Z" fill="url(#paint1_linear)"/>
<defs>
<linearGradient id="paint0_linear" x1="64.5" y1="0.0856344" x2="64.5" y2="55.8442" gradientUnits="userSpaceOnUse">
<stop stop-color="#C8A86B"/>
<stop offset="1" stop-color="#725E3A"/>
</linearGradient>
<linearGradient id="paint1_linear" x1="64.5" y1="68.5622" x2="64.5" y2="109.913" gradientUnits="userSpaceOnUse">
<stop stop-color="#C8A86B"/>
<stop offset="1" stop-color="#725E3A"/>
</linearGradient>
</defs>
</svg>
