<svg width="20" height="20" viewBox="0 0 20 20" fill="none" xmlns="http://www.w3.org/2000/svg">
<g clip-path="url(#clip0)">
<path d="M17.3055 12.0557V7.3403C17.3055 3.27526 14.0303 0 9.96524 0C5.9002 0 2.64817 3.27526 2.64817 7.3403V12.0557L0.743408 15.8188H19.2568L17.3055 12.0557Z" fill="white"/>
<path d="M17.3055 12.0557V7.3403C17.3055 3.27526 14.0303 0 9.96524 0C5.9002 0 2.64817 3.27526 2.64817 7.3403V12.0557L0.743408 15.8188H19.2568L17.3055 12.0557Z" fill="url(#paint0_linear_bell)"/>
<path d="M6.87573 16.9106C6.87573 18.6063 8.26946 20.0001 9.96516 20.0001C11.6609 20.0001 13.0546 18.6063 13.0546 16.9106H6.87573Z" fill="white"/>
<path d="M6.87573 16.9106C6.87573 18.6063 8.26946 20.0001 9.96516 20.0001C11.6609 20.0001 13.0546 18.6063 13.0546 16.9106H6.87573Z" fill="url(#paint1_linear_bell)"/>
</g>
<defs>
<linearGradient id="paint0_linear_bell" x1="10.0001" y1="-0.000319754" x2="10.0001" y2="15.8188" gradientUnits="userSpaceOnUse">
<stop stop-color="#C8A86B"/>
<stop offset="1" stop-color="#725E3A"/>
</linearGradient>
<linearGradient id="paint1_linear_bell" x1="9.96516" y1="16.9106" x2="9.96516" y2="20.0001" gradientUnits="userSpaceOnUse">
<stop stop-color="#C8A86B"/>
<stop offset="1" stop-color="#725E3A"/>
</linearGradient>
<clipPath id="clip0">
<rect width="20" height="20" fill="white"/>
</clipPath>
</defs>
</svg>
