<svg width="15" height="16" viewBox="0 0 15 16" fill="none" xmlns="http://www.w3.org/2000/svg">
<path fill-rule="evenodd" clip-rule="evenodd" d="M13.0034 7.5C13.0034 10.5376 10.541 13 7.50342 13C4.46585 13 2.00342 10.5376 2.00342 7.5C2.00342 4.46243 4.46585 2 7.50342 2C10.541 2 13.0034 4.46243 13.0034 7.5ZM11.5124 13.8398C10.3528 14.5746 8.9778 15 7.50342 15C3.36128 15 0.00341797 11.6421 0.00341797 7.5C0.00341797 3.35786 3.36128 0 7.50342 0C11.6456 0 15.0034 3.35786 15.0034 7.5C15.0034 9.4704 14.2436 11.2633 13.0009 12.6018C13.0443 12.633 13.0857 12.6681 13.1247 12.7071L14.6882 14.2706C15.0787 14.6611 15.0787 15.2943 14.6882 15.6848C14.2977 16.0753 13.6645 16.0753 13.274 15.6848L11.7105 14.1213C11.6263 14.0371 11.5603 13.9416 11.5124 13.8398Z" fill="white"/>
</svg>
